<svg width="422" height="506" viewBox="0 0 422 506" fill="none" xmlns="http://www.w3.org/2000/svg">
<g filter="url(#filter0_d_340_8796)">
<g clip-path="url(#clip0_340_8796)">
<rect x="20" y="12" width="382" height="465.145" rx="8" fill="url(#paint0_linear_340_8796)" shape-rendering="crispEdges"/>
<path d="M39.6043 40.95H36.8323V39.256H44.2243V40.95H41.4523V49H39.6043V40.95ZM48.5094 49.168C47.7721 49.168 47.1234 49.014 46.5634 48.706C46.0034 48.3887 45.5694 47.9407 45.2614 47.362C44.9627 46.7833 44.8134 46.1113 44.8134 45.346C44.8134 44.5807 44.9627 43.9087 45.2614 43.33C45.5694 42.7513 46.0034 42.308 46.5634 42C47.1234 41.6827 47.7721 41.524 48.5094 41.524C49.2467 41.524 49.8954 41.6827 50.4554 42C51.0154 42.308 51.4447 42.7513 51.7434 43.33C52.0514 43.9087 52.2054 44.5807 52.2054 45.346C52.2054 46.1113 52.0514 46.7833 51.7434 47.362C51.4447 47.9407 51.0154 48.3887 50.4554 48.706C49.8954 49.014 49.2467 49.168 48.5094 49.168ZM48.5094 47.642C49.0601 47.642 49.4894 47.446 49.7974 47.054C50.1054 46.6527 50.2594 46.0833 50.2594 45.346C50.2594 44.5993 50.1054 44.03 49.7974 43.638C49.4894 43.246 49.0601 43.05 48.5094 43.05C47.9587 43.05 47.5294 43.246 47.2214 43.638C46.9134 44.03 46.7594 44.5993 46.7594 45.346C46.7594 46.0833 46.9134 46.6527 47.2214 47.054C47.5294 47.446 47.9587 47.642 48.5094 47.642ZM58.2065 41.538C58.7572 41.538 59.2425 41.6967 59.6625 42.014C60.0918 42.322 60.4232 42.7607 60.6565 43.33C60.8992 43.89 61.0205 44.5387 61.0205 45.276C61.0205 46.004 60.8805 46.6667 60.6005 47.264C60.3205 47.852 59.9332 48.3187 59.4385 48.664C58.9532 49 58.4025 49.168 57.7865 49.168C57.0398 49.168 56.3772 49.014 55.7985 48.706V52.248H53.9505V43.316L53.6425 41.692H55.3365L55.6305 42.728C55.9665 42.3453 56.3585 42.0513 56.8065 41.846C57.2545 41.6407 57.7212 41.538 58.2065 41.538ZM57.4085 47.642C58.5192 47.642 59.0745 46.8627 59.0745 45.304C59.0745 44.5853 58.9625 44.03 58.7385 43.638C58.5238 43.246 58.2065 43.05 57.7865 43.05C57.1145 43.05 56.4518 43.3767 55.7985 44.03V47.418C56.3958 47.5673 56.9325 47.642 57.4085 47.642ZM68.7334 40.88V43.316H72.9334V44.842H68.7334V47.376H73.2414V49H66.8854V39.256H73.2414V40.88H68.7334ZM80.1385 49L78.0945 46.368L76.1205 49H74.1745L77.1425 45.136L74.4825 41.692H76.5265L78.2625 43.932L79.9285 41.692H81.8745L79.2145 45.164L82.1825 49H80.1385ZM87.3145 41.538C87.8651 41.538 88.3505 41.6967 88.7705 42.014C89.1998 42.322 89.5311 42.7607 89.7645 43.33C90.0071 43.89 90.1285 44.5387 90.1285 45.276C90.1285 46.004 89.9885 46.6667 89.7085 47.264C89.4285 47.852 89.0411 48.3187 88.5465 48.664C88.0611 49 87.5105 49.168 86.8945 49.168C86.1478 49.168 85.4851 49.014 84.9065 48.706V52.248H83.0585V43.316L82.7505 41.692H84.4445L84.7385 42.728C85.0745 42.3453 85.4665 42.0513 85.9145 41.846C86.3625 41.6407 86.8291 41.538 87.3145 41.538ZM86.5165 47.642C87.6271 47.642 88.1825 46.8627 88.1825 45.304C88.1825 44.5853 88.0705 44.03 87.8465 43.638C87.6318 43.246 87.3145 43.05 86.8945 43.05C86.2225 43.05 85.5598 43.3767 84.9065 44.03V47.418C85.5038 47.5673 86.0405 47.642 86.5165 47.642ZM98.4675 45.906H93.3855C93.4602 46.466 93.6655 46.8953 94.0015 47.194C94.3469 47.4927 94.8042 47.642 95.3735 47.642C95.7935 47.642 96.2462 47.5673 96.7315 47.418C97.2262 47.2593 97.6835 47.0447 98.1035 46.774H98.1595V48.272C97.7862 48.5613 97.3569 48.7853 96.8715 48.944C96.3955 49.0933 95.8915 49.168 95.3595 49.168C94.5942 49.168 93.9269 49.014 93.3575 48.706C92.7882 48.398 92.3495 47.9547 92.0415 47.376C91.7335 46.7973 91.5795 46.1207 91.5795 45.346C91.5795 44.59 91.7242 43.9227 92.0135 43.344C92.3122 42.7653 92.7275 42.3173 93.2595 42C93.7915 41.6827 94.4075 41.524 95.1075 41.524C95.7889 41.524 96.3815 41.678 96.8855 41.986C97.3989 42.294 97.7909 42.7373 98.0615 43.316C98.3322 43.8947 98.4675 44.5713 98.4675 45.346V45.906ZM95.1075 43.008C94.6689 43.008 94.3002 43.1527 94.0015 43.442C93.7122 43.7313 93.5162 44.1327 93.4135 44.646H96.5635C96.4889 44.114 96.3302 43.708 96.0875 43.428C95.8449 43.148 95.5182 43.008 95.1075 43.008ZM104.272 41.524C105.009 41.524 105.602 41.7433 106.05 42.182C106.507 42.6113 106.736 43.1807 106.736 43.89V49H104.888V44.94C104.888 44.3053 104.79 43.8527 104.594 43.582C104.407 43.302 104.095 43.162 103.656 43.162C103.171 43.162 102.657 43.4327 102.116 43.974V49H100.268V43.316L99.9601 41.692H101.654L101.92 42.63C102.321 42.238 102.709 41.958 103.082 41.79C103.455 41.6127 103.852 41.524 104.272 41.524ZM111.211 49.168C110.726 49.168 110.25 49.1027 109.783 48.972C109.316 48.832 108.878 48.636 108.467 48.384V46.634C108.915 46.97 109.34 47.2173 109.741 47.376C110.142 47.5347 110.576 47.614 111.043 47.614C111.519 47.614 111.869 47.5533 112.093 47.432C112.326 47.3107 112.443 47.124 112.443 46.872C112.443 46.6293 112.331 46.452 112.107 46.34C111.892 46.2187 111.547 46.102 111.071 45.99C110.548 45.8593 110.124 45.7287 109.797 45.598C109.47 45.458 109.186 45.234 108.943 44.926C108.71 44.618 108.593 44.2027 108.593 43.68C108.593 43.0267 108.859 42.504 109.391 42.112C109.932 41.72 110.656 41.524 111.561 41.524C112 41.524 112.406 41.5753 112.779 41.678C113.152 41.7713 113.535 41.93 113.927 42.154V43.862C113.526 43.582 113.152 43.3813 112.807 43.26C112.462 43.1387 112.093 43.078 111.701 43.078C111.272 43.078 110.94 43.134 110.707 43.246C110.474 43.3487 110.357 43.5027 110.357 43.708C110.357 43.9133 110.455 44.0673 110.651 44.17C110.856 44.2633 111.178 44.3613 111.617 44.464C112.14 44.576 112.574 44.7067 112.919 44.856C113.274 44.996 113.577 45.2293 113.829 45.556C114.081 45.8733 114.207 46.3167 114.207 46.886C114.207 47.3247 114.081 47.7213 113.829 48.076C113.577 48.4213 113.222 48.692 112.765 48.888C112.308 49.0747 111.79 49.168 111.211 49.168ZM122.397 45.906H117.315C117.39 46.466 117.595 46.8953 117.931 47.194C118.276 47.4927 118.734 47.642 119.303 47.642C119.723 47.642 120.176 47.5673 120.661 47.418C121.156 47.2593 121.613 47.0447 122.033 46.774H122.089V48.272C121.716 48.5613 121.286 48.7853 120.801 48.944C120.325 49.0933 119.821 49.168 119.289 49.168C118.524 49.168 117.856 49.014 117.287 48.706C116.718 48.398 116.279 47.9547 115.971 47.376C115.663 46.7973 115.509 46.1207 115.509 45.346C115.509 44.59 115.654 43.9227 115.943 43.344C116.242 42.7653 116.657 42.3173 117.189 42C117.721 41.6827 118.337 41.524 119.037 41.524C119.718 41.524 120.311 41.678 120.815 41.986C121.328 42.294 121.72 42.7373 121.991 43.316C122.262 43.8947 122.397 44.5713 122.397 45.346V45.906ZM119.037 43.008C118.598 43.008 118.23 43.1527 117.931 43.442C117.642 43.7313 117.446 44.1327 117.343 44.646H120.493C120.418 44.114 120.26 43.708 120.017 43.428C119.774 43.148 119.448 43.008 119.037 43.008ZM126.326 49.168C125.84 49.168 125.364 49.1027 124.898 48.972C124.431 48.832 123.992 48.636 123.582 48.384V46.634C124.03 46.97 124.454 47.2173 124.856 47.376C125.257 47.5347 125.691 47.614 126.158 47.614C126.634 47.614 126.984 47.5533 127.208 47.432C127.441 47.3107 127.558 47.124 127.558 46.872C127.558 46.6293 127.446 46.452 127.222 46.34C127.007 46.2187 126.662 46.102 126.186 45.99C125.663 45.8593 125.238 45.7287 124.912 45.598C124.585 45.458 124.3 45.234 124.058 44.926C123.824 44.618 123.708 44.2027 123.708 43.68C123.708 43.0267 123.974 42.504 124.506 42.112C125.047 41.72 125.77 41.524 126.676 41.524C127.114 41.524 127.52 41.5753 127.894 41.678C128.267 41.7713 128.65 41.93 129.042 42.154V43.862C128.64 43.582 128.267 43.3813 127.922 43.26C127.576 43.1387 127.208 43.078 126.816 43.078C126.386 43.078 126.055 43.134 125.822 43.246C125.588 43.3487 125.472 43.5027 125.472 43.708C125.472 43.9133 125.57 44.0673 125.766 44.17C125.971 44.2633 126.293 44.3613 126.732 44.464C127.254 44.576 127.688 44.7067 128.034 44.856C128.388 44.996 128.692 45.2293 128.944 45.556C129.196 45.8733 129.322 46.3167 129.322 46.886C129.322 47.3247 129.196 47.7213 128.944 48.076C128.692 48.4213 128.337 48.692 127.88 48.888C127.422 49.0747 126.904 49.168 126.326 49.168Z" fill="#E0E0E0"/>
<path d="M49.6922 80.296C49.6922 81.608 49.2682 82.696 48.4202 83.56C47.5882 84.424 46.4442 84.968 44.9882 85.192V87.784H43.0202V85.288C42.1082 85.24 41.1722 85.104 40.2122 84.88C39.2682 84.64 38.3802 84.328 37.5482 83.944V80.872C39.5962 81.944 41.4202 82.504 43.0202 82.552V77.584C41.9162 77.168 41.0442 76.8 40.4042 76.48C39.7642 76.144 39.2122 75.672 38.7482 75.064C38.2842 74.456 38.0522 73.68 38.0522 72.736C38.0522 71.456 38.4922 70.408 39.3722 69.592C40.2682 68.776 41.4842 68.272 43.0202 68.08V65.512H44.9882V68.032C46.5402 68.112 47.9322 68.464 49.1642 69.088V72.088C47.7562 71.272 46.3642 70.832 44.9882 70.768V75.28C45.9482 75.632 46.7482 76 47.3882 76.384C48.0442 76.752 48.5882 77.256 49.0202 77.896C49.4682 78.536 49.6922 79.336 49.6922 80.296ZM41.2922 72.544C41.2922 72.976 41.4362 73.344 41.7242 73.648C42.0282 73.952 42.4602 74.232 43.0202 74.488V70.888C42.4762 71 42.0522 71.2 41.7482 71.488C41.4442 71.76 41.2922 72.112 41.2922 72.544ZM44.9882 82.312C45.9482 81.976 46.4282 81.368 46.4282 80.488C46.4282 80.04 46.3002 79.656 46.0442 79.336C45.8042 79 45.4522 78.704 44.9882 78.448V82.312ZM58.7582 74.512C59.8302 74.512 60.7822 74.744 61.6142 75.208C62.4462 75.672 63.0942 76.312 63.5582 77.128C64.0222 77.944 64.2542 78.856 64.2542 79.864C64.2542 80.952 63.9822 81.904 63.4382 82.72C62.8942 83.536 62.1262 84.168 61.1342 84.616C60.1422 85.048 58.9902 85.264 57.6782 85.264C56.6702 85.264 55.6782 85.136 54.7022 84.88C53.7262 84.608 52.8622 84.224 52.1102 83.728V80.656H52.2062C52.9262 81.216 53.7902 81.672 54.7982 82.024C55.8062 82.376 56.7422 82.552 57.6062 82.552C58.6302 82.552 59.4542 82.304 60.0782 81.808C60.7022 81.296 61.0142 80.632 61.0142 79.816C61.0142 79.048 60.7422 78.424 60.1982 77.944C59.6702 77.464 58.9742 77.224 58.1102 77.224C56.9582 77.224 55.8622 77.648 54.8222 78.496H54.7262L52.6382 77.848V77.728L53.7182 68.296H63.4622V71.056H56.3582L55.9022 75.136C56.8142 74.72 57.7662 74.512 58.7582 74.512ZM70.473 81.4C70.473 82.472 70.329 83.576 70.041 84.712C69.753 85.848 69.241 87.144 68.505 88.6H65.337C65.865 87.64 66.249 86.736 66.489 85.888C66.729 85.056 66.873 84.32 66.921 83.68C66.985 83.024 67.017 82.264 67.017 81.4H70.473ZM82.5394 76.264C83.3554 76.696 83.9874 77.28 84.4354 78.016C84.8994 78.736 85.1314 79.536 85.1314 80.416C85.1314 81.392 84.8594 82.248 84.3154 82.984C83.7714 83.72 83.0034 84.288 82.0114 84.688C81.0194 85.088 79.8914 85.288 78.6274 85.288C77.6994 85.288 76.8114 85.176 75.9634 84.952C75.1314 84.728 74.2994 84.384 73.4674 83.92V80.824H73.5634C75.2274 81.976 76.8754 82.552 78.5074 82.552C79.5314 82.552 80.3474 82.352 80.9554 81.952C81.5634 81.536 81.8674 80.968 81.8674 80.248C81.8674 79.464 81.5234 78.832 80.8354 78.352C80.1474 77.856 79.2194 77.608 78.0514 77.608H77.0434V74.968H78.0514C79.1394 74.968 79.9954 74.768 80.6194 74.368C81.2434 73.968 81.5554 73.416 81.5554 72.712C81.5554 72.088 81.2914 71.608 80.7634 71.272C80.2514 70.936 79.5314 70.768 78.6034 70.768C77.8834 70.768 77.1554 70.88 76.4194 71.104C75.6994 71.328 74.9074 71.68 74.0434 72.16H73.9474V69.184C75.4674 68.4 77.0674 68.008 78.7474 68.008C80.5714 68.008 82.0274 68.408 83.1154 69.208C84.2194 69.992 84.7714 71.064 84.7714 72.424C84.7714 73.224 84.5714 73.96 84.1714 74.632C83.7874 75.288 83.2434 75.832 82.5394 76.264ZM100.014 68.296V69.904L93.5582 85H90.6542L90.0782 84.904L96.3182 71.056H88.9022V68.296H100.014ZM109.065 85.288C106.809 85.288 105.145 84.504 104.073 82.936C103.001 81.352 102.465 79.256 102.465 76.648C102.465 74.04 103.001 71.952 104.073 70.384C105.145 68.8 106.809 68.008 109.065 68.008C111.321 68.008 112.985 68.8 114.057 70.384C115.129 71.952 115.665 74.04 115.665 76.648C115.665 79.256 115.129 81.352 114.057 82.936C112.985 84.504 111.321 85.288 109.065 85.288ZM109.065 82.576C110.217 82.576 111.049 82.032 111.561 80.944C112.073 79.856 112.329 78.424 112.329 76.648C112.329 74.872 112.073 73.44 111.561 72.352C111.049 71.264 110.217 70.72 109.065 70.72C107.913 70.72 107.081 71.264 106.569 72.352C106.057 73.44 105.801 74.872 105.801 76.648C105.801 78.424 106.057 79.856 106.569 80.944C107.081 82.032 107.913 82.576 109.065 82.576Z" fill="white"/>
<path d="M138.5 76V84M138.5 84L142 80.8M138.5 84L135 80.8" stroke="#FF7B69" stroke-width="1.25" stroke-linecap="round" stroke-linejoin="round"/>
<path d="M149.11 82.62C148.59 82.62 148.127 82.5333 147.72 82.36C147.313 82.1867 146.997 81.9433 146.77 81.63C146.543 81.3167 146.43 80.9633 146.43 80.57C146.43 80.19 146.533 79.85 146.74 79.55C146.953 79.25 147.22 79.04 147.54 78.92C147.24 78.82 147 78.62 146.82 78.32C146.647 78.02 146.56 77.6933 146.56 77.34C146.56 76.96 146.667 76.6233 146.88 76.33C147.1 76.0367 147.403 75.8133 147.79 75.66C148.177 75.5 148.613 75.42 149.1 75.42C149.593 75.42 150.03 75.5 150.41 75.66C150.797 75.8133 151.097 76.0367 151.31 76.33C151.53 76.6167 151.64 76.95 151.64 77.33C151.64 77.6833 151.55 78.01 151.37 78.31C151.19 78.61 150.95 78.8133 150.65 78.92C151.003 79.0467 151.277 79.2633 151.47 79.57C151.67 79.87 151.77 80.2033 151.77 80.57C151.77 80.97 151.657 81.3267 151.43 81.64C151.203 81.9467 150.887 82.1867 150.48 82.36C150.08 82.5333 149.623 82.62 149.11 82.62ZM149.1 78.35C149.48 78.35 149.773 78.2733 149.98 78.12C150.193 77.96 150.3 77.7333 150.3 77.44C150.3 77.1467 150.197 76.92 149.99 76.76C149.783 76.6 149.487 76.52 149.1 76.52C148.713 76.52 148.417 76.6 148.21 76.76C148.003 76.92 147.9 77.1467 147.9 77.44C147.9 77.7333 148.003 77.96 148.21 78.12C148.417 78.2733 148.713 78.35 149.1 78.35ZM149.1 81.51C149.52 81.51 149.843 81.42 150.07 81.24C150.297 81.06 150.41 80.81 150.41 80.49C150.41 80.1633 150.297 79.9133 150.07 79.74C149.843 79.56 149.52 79.47 149.1 79.47C148.687 79.47 148.363 79.56 148.13 79.74C147.903 79.9133 147.79 80.1633 147.79 80.49C147.79 80.8167 147.903 81.07 148.13 81.25C148.357 81.4233 148.68 81.51 149.1 81.51ZM154.821 79.59C154.175 79.59 153.695 79.4 153.381 79.02C153.075 78.6333 152.921 78.1267 152.921 77.5C152.921 76.8733 153.075 76.37 153.381 75.99C153.695 75.6033 154.175 75.41 154.821 75.41C155.468 75.41 155.945 75.6033 156.251 75.99C156.565 76.37 156.721 76.8733 156.721 77.5C156.721 78.1267 156.565 78.6333 156.251 79.02C155.945 79.4 155.468 79.59 154.821 79.59ZM160.451 75.54L154.941 82.5H153.951L159.461 75.54H160.451ZM154.821 78.73C155.095 78.73 155.298 78.6167 155.431 78.39C155.565 78.1567 155.631 77.86 155.631 77.5C155.631 77.1467 155.561 76.8533 155.421 76.62C155.288 76.3867 155.088 76.27 154.821 76.27C154.555 76.27 154.351 76.3867 154.211 76.62C154.078 76.8533 154.011 77.1467 154.011 77.5C154.011 77.86 154.078 78.1567 154.211 78.39C154.345 78.6167 154.548 78.73 154.821 78.73ZM159.581 82.63C158.935 82.63 158.455 82.44 158.141 82.06C157.835 81.6733 157.681 81.1667 157.681 80.54C157.681 79.9133 157.835 79.41 158.141 79.03C158.455 78.6433 158.935 78.45 159.581 78.45C160.228 78.45 160.705 78.6433 161.011 79.03C161.325 79.41 161.481 79.9133 161.481 80.54C161.481 81.1667 161.325 81.6733 161.011 82.06C160.705 82.44 160.228 82.63 159.581 82.63ZM159.581 81.77C159.855 81.77 160.058 81.6567 160.191 81.43C160.325 81.1967 160.391 80.9 160.391 80.54C160.391 80.1867 160.321 79.8933 160.181 79.66C160.048 79.4267 159.848 79.31 159.581 79.31C159.315 79.31 159.111 79.4267 158.971 79.66C158.838 79.8933 158.771 80.1867 158.771 80.54C158.771 80.9 158.838 81.1967 158.971 81.43C159.105 81.6567 159.308 81.77 159.581 81.77Z" fill="#FF7B69"/>
<path d="M171.038 81.34V82.5H166.178V81.34H168.128V77.08L166.848 77.64H166.808L166.528 76.79V76.75L168.518 75.54H169.448V81.34H171.038ZM180.979 82.5H179.659V77.21L177.819 82.5H176.439L174.559 77.22V82.5H173.239V75.54H175.309L177.149 80.7L178.939 75.54H180.979V82.5Z" fill="#E0E0E0"/>
<g filter="url(#filter1_d_340_8796)">
<path d="M139 124.5H151" stroke="#BC7CE4" stroke-width="2"/>
<path d="M162.867 118.256H166.031C168.458 118.256 169.671 119.32 169.671 121.448C169.671 122.521 169.368 123.343 168.761 123.912C168.164 124.472 167.287 124.752 166.129 124.752H164.099V128H162.867V118.256ZM166.087 123.604C166.89 123.604 167.464 123.441 167.809 123.114C168.164 122.787 168.341 122.251 168.341 121.504C168.341 120.757 168.164 120.225 167.809 119.908C167.464 119.591 166.871 119.432 166.031 119.432H164.099V123.604H166.087ZM176.169 128L175.973 126.95C175.609 127.351 175.213 127.655 174.783 127.86C174.363 128.065 173.887 128.168 173.355 128.168C172.693 128.168 172.156 127.981 171.745 127.608C171.335 127.225 171.129 126.721 171.129 126.096C171.129 125.284 171.456 124.687 172.109 124.304C172.763 123.921 173.603 123.73 174.629 123.73C175.003 123.73 175.413 123.753 175.861 123.8V123.296C175.861 122.792 175.721 122.391 175.441 122.092C175.171 121.784 174.816 121.63 174.377 121.63C173.855 121.63 173.379 121.7 172.949 121.84C172.529 121.98 172.095 122.199 171.647 122.498V121.308C172.086 121.019 172.534 120.818 172.991 120.706C173.449 120.585 173.971 120.524 174.559 120.524C175.306 120.524 175.913 120.762 176.379 121.238C176.855 121.714 177.093 122.344 177.093 123.128V126.376L177.401 128H176.169ZM173.607 127.132C174.055 127.132 174.457 127.039 174.811 126.852C175.166 126.665 175.516 126.395 175.861 126.04V124.668H174.573C173.164 124.668 172.459 125.121 172.459 126.026C172.459 126.362 172.567 126.633 172.781 126.838C172.996 127.034 173.271 127.132 173.607 127.132ZM185.663 120.692L181.477 131.248H180.217L181.477 128.084L178.579 120.692H179.839L182.121 126.684L184.347 120.692H185.663ZM190.963 120.524V121.882H190.753C190.314 121.882 189.917 121.961 189.563 122.12C189.217 122.279 188.928 122.507 188.695 122.806V128H187.463V122.316L187.155 120.692H188.387L188.639 121.994C189.021 121.434 189.343 121.051 189.605 120.846C189.875 120.631 190.183 120.524 190.529 120.524H190.963ZM195.84 128.168C194.776 128.168 193.945 127.823 193.348 127.132C192.751 126.432 192.452 125.503 192.452 124.346C192.452 123.189 192.751 122.265 193.348 121.574C193.945 120.874 194.776 120.524 195.84 120.524C196.904 120.524 197.735 120.874 198.332 121.574C198.929 122.265 199.228 123.189 199.228 124.346C199.228 125.503 198.929 126.432 198.332 127.132C197.735 127.823 196.904 128.168 195.84 128.168ZM195.84 127.104C196.521 127.104 197.035 126.852 197.38 126.348C197.725 125.844 197.898 125.177 197.898 124.346C197.898 123.515 197.725 122.848 197.38 122.344C197.035 121.84 196.521 121.588 195.84 121.588C195.159 121.588 194.645 121.84 194.3 122.344C193.964 122.848 193.796 123.515 193.796 124.346C193.796 125.177 193.964 125.844 194.3 126.348C194.645 126.852 195.159 127.104 195.84 127.104ZM201.519 117.444H202.751V128H201.519V117.444ZM205.303 117.444H206.535V128H205.303V117.444Z" fill="white"/>
<path d="M228 124.5H240" stroke="#FFD19C" stroke-width="2"/>
<path d="M257.621 125.424H252.931L251.937 128H250.705L254.457 118.256H256.165L259.917 128H258.615L257.621 125.424ZM257.215 124.374L255.283 119.334L253.337 124.374H257.215ZM266.92 128L266.738 127.034C266.402 127.407 266.024 127.687 265.604 127.874C265.184 128.061 264.713 128.154 264.19 128.154C263.285 128.154 262.59 127.804 262.104 127.104C261.619 126.404 261.376 125.508 261.376 124.416C261.376 123.669 261.507 123.002 261.768 122.414C262.039 121.826 262.422 121.364 262.916 121.028C263.42 120.692 264.018 120.524 264.708 120.524C265.044 120.524 265.362 120.566 265.66 120.65C265.959 120.725 266.276 120.837 266.612 120.986V117.444H267.844V126.376L268.152 128H266.92ZM264.386 127.02C264.834 127.02 265.231 126.931 265.576 126.754C265.931 126.567 266.276 126.297 266.612 125.942V121.924C266.015 121.719 265.422 121.616 264.834 121.616C264.153 121.616 263.626 121.877 263.252 122.4C262.888 122.913 262.706 123.576 262.706 124.388C262.706 125.163 262.837 125.797 263.098 126.292C263.369 126.777 263.798 127.02 264.386 127.02ZM272.529 128.168C272.081 128.168 271.638 128.103 271.199 127.972C270.77 127.832 270.364 127.636 269.981 127.384V126.096C270.831 126.749 271.671 127.076 272.501 127.076C272.987 127.076 273.379 126.978 273.677 126.782C273.976 126.577 274.125 126.306 274.125 125.97C274.125 125.737 274.051 125.545 273.901 125.396C273.761 125.247 273.584 125.13 273.369 125.046C273.155 124.962 272.847 124.859 272.445 124.738C271.951 124.598 271.54 124.463 271.213 124.332C270.896 124.192 270.625 123.991 270.401 123.73C270.177 123.459 270.065 123.109 270.065 122.68C270.065 122.027 270.313 121.504 270.807 121.112C271.302 120.72 271.951 120.524 272.753 120.524C273.556 120.524 274.284 120.734 274.937 121.154V122.4C274.573 122.12 274.219 121.919 273.873 121.798C273.537 121.677 273.183 121.616 272.809 121.616C272.343 121.616 271.974 121.7 271.703 121.868C271.433 122.036 271.297 122.269 271.297 122.568C271.297 122.783 271.367 122.96 271.507 123.1C271.657 123.24 271.839 123.352 272.053 123.436C272.268 123.52 272.576 123.623 272.977 123.744C273.481 123.893 273.892 124.038 274.209 124.178C274.527 124.309 274.797 124.514 275.021 124.794C275.245 125.065 275.357 125.419 275.357 125.858C275.357 126.306 275.236 126.707 274.993 127.062C274.751 127.407 274.415 127.678 273.985 127.874C273.556 128.07 273.071 128.168 272.529 128.168ZM280.929 120.524C281.564 120.524 282.105 120.692 282.553 121.028C283.001 121.364 283.337 121.821 283.561 122.4C283.795 122.979 283.911 123.632 283.911 124.36C283.911 125.088 283.776 125.741 283.505 126.32C283.244 126.889 282.861 127.337 282.357 127.664C281.863 127.991 281.275 128.154 280.593 128.154C280.248 128.154 279.926 128.117 279.627 128.042C279.329 127.967 279.011 127.86 278.675 127.72V131.248H277.443V122.316L277.135 120.692H278.367L278.549 121.63C279.184 120.893 279.977 120.524 280.929 120.524ZM280.467 127.062C281.139 127.062 281.657 126.81 282.021 126.306C282.395 125.802 282.581 125.153 282.581 124.36C282.581 123.567 282.437 122.918 282.147 122.414C281.867 121.91 281.424 121.658 280.817 121.658C280.388 121.658 280.001 121.747 279.655 121.924C279.319 122.101 278.993 122.363 278.675 122.708V126.782C279.282 126.969 279.879 127.062 280.467 127.062ZM292.292 124.752H287.112C287.187 125.471 287.425 126.045 287.826 126.474C288.237 126.894 288.792 127.104 289.492 127.104C289.912 127.104 290.318 127.02 290.71 126.852C291.112 126.675 291.518 126.418 291.928 126.082H291.984V127.314C291.574 127.613 291.168 127.832 290.766 127.972C290.365 128.103 289.936 128.168 289.478 128.168C288.732 128.168 288.083 128.005 287.532 127.678C286.982 127.351 286.557 126.899 286.258 126.32C285.969 125.732 285.824 125.06 285.824 124.304C285.824 123.585 285.955 122.941 286.216 122.372C286.487 121.793 286.87 121.341 287.364 121.014C287.859 120.687 288.438 120.524 289.1 120.524C289.772 120.524 290.346 120.692 290.822 121.028C291.308 121.355 291.672 121.807 291.914 122.386C292.166 122.965 292.292 123.618 292.292 124.346V124.752ZM289.114 121.546C288.536 121.546 288.074 121.756 287.728 122.176C287.383 122.596 287.178 123.137 287.112 123.8H291.018C290.953 123.119 290.762 122.573 290.444 122.162C290.136 121.751 289.693 121.546 289.114 121.546ZM298.405 120.524C299.096 120.524 299.618 120.739 299.973 121.168C300.328 121.588 300.505 122.176 300.505 122.932V128H299.273V123.1C299.273 122.633 299.175 122.274 298.979 122.022C298.783 121.761 298.484 121.63 298.083 121.63C297.626 121.63 297.238 121.705 296.921 121.854C296.613 122.003 296.268 122.246 295.885 122.582V128H294.653V122.316L294.345 120.692H295.577L295.773 121.714C296.212 121.294 296.618 120.991 296.991 120.804C297.374 120.617 297.845 120.524 298.405 120.524ZM308.48 128L308.298 127.034C307.962 127.407 307.584 127.687 307.164 127.874C306.744 128.061 306.273 128.154 305.75 128.154C304.845 128.154 304.149 127.804 303.664 127.104C303.179 126.404 302.936 125.508 302.936 124.416C302.936 123.669 303.067 123.002 303.328 122.414C303.599 121.826 303.981 121.364 304.476 121.028C304.98 120.692 305.577 120.524 306.268 120.524C306.604 120.524 306.921 120.566 307.22 120.65C307.519 120.725 307.836 120.837 308.172 120.986V117.444H309.404V126.376L309.712 128H308.48ZM305.946 127.02C306.394 127.02 306.791 126.931 307.136 126.754C307.491 126.567 307.836 126.297 308.172 125.942V121.924C307.575 121.719 306.982 121.616 306.394 121.616C305.713 121.616 305.185 121.877 304.812 122.4C304.448 122.913 304.266 123.576 304.266 124.388C304.266 125.163 304.397 125.797 304.658 126.292C304.929 126.777 305.358 127.02 305.946 127.02Z" fill="white"/>
<path d="M331 124.5H343" stroke="#EBEAF6" stroke-width="2"/>
<path d="M360.667 128L358.693 124.178H358.553H356.313V128H355.081V118.256H358.385C359.552 118.256 360.42 118.503 360.989 118.998C361.558 119.483 361.843 120.197 361.843 121.14C361.843 121.84 361.689 122.433 361.381 122.918C361.073 123.403 360.62 123.749 360.023 123.954L362.151 128H360.667ZM358.399 123.016C359.127 123.016 359.659 122.876 359.995 122.596C360.34 122.307 360.513 121.821 360.513 121.14C360.513 120.515 360.34 120.076 359.995 119.824C359.659 119.563 359.122 119.432 358.385 119.432H356.313V123.016H358.399ZM370.442 124.752H365.262C365.336 125.471 365.574 126.045 365.976 126.474C366.386 126.894 366.942 127.104 367.642 127.104C368.062 127.104 368.468 127.02 368.86 126.852C369.261 126.675 369.667 126.418 370.078 126.082H370.134V127.314C369.723 127.613 369.317 127.832 368.916 127.972C368.514 128.103 368.085 128.168 367.628 128.168C366.881 128.168 366.232 128.005 365.682 127.678C365.131 127.351 364.706 126.899 364.408 126.32C364.118 125.732 363.974 125.06 363.974 124.304C363.974 123.585 364.104 122.941 364.366 122.372C364.636 121.793 365.019 121.341 365.514 121.014C366.008 120.687 366.587 120.524 367.25 120.524C367.922 120.524 368.496 120.692 368.972 121.028C369.457 121.355 369.821 121.807 370.064 122.386C370.316 122.965 370.442 123.618 370.442 124.346V124.752ZM367.264 121.546C366.685 121.546 366.223 121.756 365.878 122.176C365.532 122.596 365.327 123.137 365.262 123.8H369.168C369.102 123.119 368.911 122.573 368.594 122.162C368.286 121.751 367.842 121.546 367.264 121.546ZM376.554 120.524C377.245 120.524 377.768 120.739 378.122 121.168C378.477 121.588 378.654 122.176 378.654 122.932V128H377.422V123.1C377.422 122.633 377.324 122.274 377.128 122.022C376.932 121.761 376.634 121.63 376.232 121.63C375.775 121.63 375.388 121.705 375.07 121.854C374.762 122.003 374.417 122.246 374.034 122.582V128H372.802V122.316L372.494 120.692H373.726L373.922 121.714C374.361 121.294 374.767 120.991 375.14 120.804C375.523 120.617 375.994 120.524 376.554 120.524ZM383.045 120.692H385.061V121.756H383.045V125.942C383.045 126.287 383.12 126.567 383.269 126.782C383.428 126.987 383.657 127.09 383.955 127.09C384.161 127.09 384.343 127.071 384.501 127.034C384.669 126.987 384.856 126.917 385.061 126.824V127.916C384.847 128.019 384.641 128.084 384.445 128.112C384.249 128.149 384.011 128.168 383.731 128.168C383.134 128.168 382.663 127.977 382.317 127.594C381.981 127.211 381.813 126.703 381.813 126.068V121.756H380.413V120.692H381.813V118.732L383.045 118.088V120.692Z" fill="white"/>
<path d="M312.272 390.145H310.952V384.855L309.112 390.145H307.732L305.852 384.865V390.145H304.532V383.185H306.602L308.442 388.345L310.232 383.185H312.272V390.145ZM318.967 388.565H315.997L315.417 390.145H314.097L316.737 383.185H318.277L320.917 390.145H319.547L318.967 388.565ZM318.557 387.445L317.487 384.485L316.407 387.445H318.557ZM327.603 383.185L325.073 387.745V390.145H323.753V387.745L321.223 383.185H322.633L324.423 386.565L326.243 383.185H327.603Z" fill="#A3A3A3"/>
<path d="M249.774 388.565H246.804L246.224 390.145H244.904L247.544 383.185H249.084L251.724 390.145H250.354L249.774 388.565ZM249.364 387.445L248.294 384.485L247.214 387.445H249.364ZM253.546 383.185H255.846C256.806 383.185 257.523 383.381 257.996 383.775C258.469 384.161 258.706 384.725 258.706 385.465C258.706 386.211 258.473 386.791 258.006 387.205C257.539 387.618 256.859 387.825 255.966 387.825H254.866V390.145H253.546V383.185ZM255.856 386.675C256.356 386.675 256.723 386.585 256.956 386.405C257.196 386.225 257.316 385.921 257.316 385.495C257.316 385.081 257.199 384.788 256.966 384.615C256.733 384.441 256.359 384.355 255.846 384.355H254.866V386.675H255.856ZM264.628 390.145L263.208 387.495H261.968V390.145H260.648V383.185H263.158C264.058 383.185 264.731 383.365 265.178 383.725C265.624 384.085 265.848 384.608 265.848 385.295C265.848 385.781 265.738 386.195 265.518 386.535C265.298 386.875 264.971 387.128 264.538 387.295L266.078 390.145H264.628ZM261.968 386.335H263.168C263.608 386.335 263.931 386.258 264.138 386.105C264.351 385.951 264.458 385.691 264.458 385.325C264.458 384.971 264.354 384.721 264.148 384.575C263.941 384.428 263.611 384.355 263.158 384.355H261.968V386.335Z" fill="#A3A3A3"/>
<path d="M194.654 390.145H193.334V384.855L191.494 390.145H190.114L188.234 384.865V390.145H186.914V383.185H188.984L190.824 388.345L192.614 383.185H194.654V390.145ZM201.349 388.565H198.379L197.799 390.145H196.479L199.119 383.185H200.659L203.299 390.145H201.929L201.349 388.565ZM200.939 387.445L199.869 384.485L198.789 387.445H200.939ZM209.101 390.145L207.681 387.495H206.441V390.145H205.121V383.185H207.631C208.531 383.185 209.204 383.365 209.651 383.725C210.098 384.085 210.321 384.608 210.321 385.295C210.321 385.781 210.211 386.195 209.991 386.535C209.771 386.875 209.444 387.128 209.011 387.295L210.551 390.145H209.101ZM206.441 386.335H207.641C208.081 386.335 208.404 386.258 208.611 386.105C208.824 385.951 208.931 385.691 208.931 385.325C208.931 384.971 208.828 384.721 208.621 384.575C208.414 384.428 208.084 384.355 207.631 384.355H206.441V386.335Z" fill="#A3A3A3"/>
<path d="M133.754 384.345V386.195H136.344V387.295H133.754V390.145H132.434V383.185H137.004V384.345H133.754ZM140.25 384.345V386.085H143.25V387.175H140.25V388.985H143.47V390.145H138.93V383.185H143.47V384.345H140.25ZM149.986 386.525C150.346 386.678 150.62 386.895 150.806 387.175C150.993 387.455 151.086 387.795 151.086 388.195C151.086 388.828 150.856 389.311 150.396 389.645C149.936 389.978 149.27 390.145 148.396 390.145H145.826V383.185H148.516C149.27 383.185 149.85 383.345 150.256 383.665C150.663 383.978 150.866 384.428 150.866 385.015C150.866 385.715 150.573 386.218 149.986 386.525ZM147.146 384.345V386.005H148.396C148.756 386.005 149.026 385.931 149.206 385.785C149.386 385.638 149.476 385.425 149.476 385.145C149.476 384.838 149.396 384.628 149.236 384.515C149.083 384.401 148.806 384.345 148.406 384.345H147.146ZM148.396 388.975C148.87 388.975 149.203 388.908 149.396 388.775C149.596 388.635 149.696 388.398 149.696 388.065C149.696 387.751 149.59 387.521 149.376 387.375C149.17 387.228 148.846 387.155 148.406 387.155H147.146V388.975H148.396Z" fill="#A3A3A3"/>
<path d="M364.522 390.265C364.056 390.265 363.622 390.141 363.222 389.895V388.715C363.596 388.955 363.966 389.075 364.332 389.075C364.559 389.075 364.719 389.025 364.812 388.925C364.912 388.825 364.969 388.688 364.982 388.515C365.002 388.341 365.012 388.048 365.012 387.635V383.185H366.332V388.005C366.332 388.805 366.172 389.381 365.852 389.735C365.539 390.088 365.096 390.265 364.522 390.265ZM371.657 390.265C370.73 390.265 370.003 389.998 369.477 389.465C368.95 388.931 368.687 388.198 368.687 387.265V383.185H370.007V387.235C370.007 387.875 370.15 388.348 370.437 388.655C370.723 388.955 371.13 389.105 371.657 389.105C372.19 389.105 372.597 388.951 372.877 388.645C373.163 388.331 373.307 387.861 373.307 387.235V383.185H374.627V387.265C374.627 388.198 374.363 388.931 373.837 389.465C373.31 389.998 372.583 390.265 371.657 390.265ZM383.029 383.185V390.145H381.709L378.409 385.545V390.145H377.089V383.185H378.409L381.709 387.775V383.185H383.029Z" fill="#A3A3A3"/>
<path d="M73.8326 390.265C73.366 390.265 72.9326 390.141 72.5326 389.895V388.715C72.906 388.955 73.276 389.075 73.6426 389.075C73.8693 389.075 74.0293 389.025 74.1226 388.925C74.2226 388.825 74.2793 388.688 74.2926 388.515C74.3126 388.341 74.3226 388.048 74.3226 387.635V383.185H75.6426V388.005C75.6426 388.805 75.4826 389.381 75.1626 389.735C74.8493 390.088 74.406 390.265 73.8326 390.265ZM82.2269 388.565H79.2569L78.6769 390.145H77.3569L79.9969 383.185H81.5369L84.1769 390.145H82.8069L82.2269 388.565ZM81.8169 387.445L80.7469 384.485L79.6669 387.445H81.8169ZM91.9393 383.185V390.145H90.6193L87.3193 385.545V390.145H85.9993V383.185H87.3193L90.6193 387.775V383.185H91.9393Z" fill="#A3A3A3"/>
<path d="M42.8128 174.83V176H38.0728V175L40.3028 172.66C40.6694 172.28 40.9228 171.963 41.0628 171.71C41.2028 171.457 41.2728 171.213 41.2728 170.98C41.2728 170.367 40.8928 170.06 40.1328 170.06C39.8194 170.06 39.5028 170.107 39.1828 170.2C38.8694 170.293 38.5694 170.433 38.2828 170.62V169.41C38.8694 169.083 39.5061 168.92 40.1928 168.92C40.9328 168.92 41.5194 169.093 41.9528 169.44C42.3928 169.787 42.6128 170.263 42.6128 170.87C42.6128 171.563 42.2994 172.257 41.6728 172.95L39.9628 174.83H42.8128ZM47.1539 173.12L46.3939 174V176H45.0739V169.04H46.3939V172.2L49.0639 169.04H50.6839L48.0539 172.08L50.8439 176H49.2139L47.1539 173.12Z" fill="#A3A3A3"/>
<path d="M36.7789 216.166V217.326H31.9189V216.166H33.8689V211.906L32.5889 212.466H32.5489L32.2689 211.616V211.576L34.2589 210.366H35.1889V216.166H36.7789ZM39.25 217.446C38.9967 217.446 38.7834 217.363 38.61 217.196C38.4367 217.029 38.35 216.809 38.35 216.536C38.35 216.263 38.4367 216.043 38.61 215.876C38.7834 215.709 38.9967 215.626 39.25 215.626C39.5034 215.626 39.7167 215.709 39.89 215.876C40.0634 216.043 40.15 216.263 40.15 216.536C40.15 216.809 40.0634 217.029 39.89 217.196C39.7167 217.363 39.5034 217.446 39.25 217.446ZM44.3877 212.956C44.8344 212.956 45.231 213.053 45.5777 213.246C45.9244 213.439 46.1944 213.706 46.3877 214.046C46.581 214.386 46.6777 214.766 46.6777 215.186C46.6777 215.639 46.5644 216.036 46.3377 216.376C46.111 216.716 45.791 216.979 45.3777 217.166C44.9644 217.346 44.4844 217.436 43.9377 217.436C43.5177 217.436 43.1044 217.383 42.6977 217.276C42.291 217.163 41.931 217.003 41.6177 216.796V215.516H41.6577C41.9577 215.749 42.3177 215.939 42.7377 216.086C43.1577 216.233 43.5477 216.306 43.9077 216.306C44.3344 216.306 44.6777 216.203 44.9377 215.996C45.1977 215.783 45.3277 215.506 45.3277 215.166C45.3277 214.846 45.2144 214.586 44.9877 214.386C44.7677 214.186 44.4777 214.086 44.1177 214.086C43.6377 214.086 43.181 214.263 42.7477 214.616H42.7077L41.8377 214.346V214.296L42.2877 210.366H46.3477V211.516H43.3877L43.1977 213.216C43.5777 213.043 43.9744 212.956 44.3877 212.956ZM50.8589 214.446L50.0989 215.326V217.326H48.7789V210.366H50.0989V213.526L52.7689 210.366H54.3889L51.7589 213.406L54.5489 217.326H52.9189L50.8589 214.446Z" fill="#A3A3A3"/>
<path d="M42.8728 265.006V266.166H38.0128V265.006H39.9628V260.746L38.6828 261.306H38.6428L38.3628 260.456V260.416L40.3528 259.206H41.2828V265.006H42.8728ZM47.1539 263.286L46.3939 264.166V266.166H45.0739V259.206H46.3939V262.366L49.0639 259.206H50.6839L48.0539 262.246L50.8439 266.166H49.2139L47.1539 263.286Z" fill="#A3A3A3"/>
<path d="M38.3159 310.63C38.7626 310.63 39.1592 310.727 39.5059 310.92C39.8526 311.113 40.1226 311.38 40.3159 311.72C40.5092 312.06 40.6059 312.44 40.6059 312.86C40.6059 313.313 40.4926 313.71 40.2659 314.05C40.0392 314.39 39.7192 314.653 39.3059 314.84C38.8926 315.02 38.4126 315.11 37.8659 315.11C37.4459 315.11 37.0326 315.057 36.6259 314.95C36.2192 314.837 35.8592 314.677 35.5459 314.47V313.19H35.5859C35.8859 313.423 36.2459 313.613 36.6659 313.76C37.0859 313.907 37.4759 313.98 37.8359 313.98C38.2626 313.98 38.6059 313.877 38.8659 313.67C39.1259 313.457 39.2559 313.18 39.2559 312.84C39.2559 312.52 39.1426 312.26 38.9159 312.06C38.6959 311.86 38.4059 311.76 38.0459 311.76C37.5659 311.76 37.1092 311.937 36.6759 312.29H36.6359L35.7659 312.02V311.97L36.2159 308.04H40.2759V309.19H37.3159L37.1259 310.89C37.5059 310.717 37.9026 310.63 38.3159 310.63ZM44.7771 315.12C43.8371 315.12 43.1437 314.793 42.6971 314.14C42.2504 313.48 42.0271 312.607 42.0271 311.52C42.0271 310.433 42.2504 309.563 42.6971 308.91C43.1437 308.25 43.8371 307.92 44.7771 307.92C45.7171 307.92 46.4104 308.25 46.8571 308.91C47.3037 309.563 47.5271 310.433 47.5271 311.52C47.5271 312.607 47.3037 313.48 46.8571 314.14C46.4104 314.793 45.7171 315.12 44.7771 315.12ZM44.7771 313.99C45.2571 313.99 45.6037 313.763 45.8171 313.31C46.0304 312.857 46.1371 312.26 46.1371 311.52C46.1371 310.78 46.0304 310.183 45.8171 309.73C45.6037 309.277 45.2571 309.05 44.7771 309.05C44.2971 309.05 43.9504 309.277 43.7371 309.73C43.5237 310.183 43.4171 310.78 43.4171 311.52C43.4171 312.26 43.5237 312.857 43.7371 313.31C43.9504 313.763 44.2971 313.99 44.7771 313.99ZM51.4783 315.12C50.5383 315.12 49.8449 314.793 49.3983 314.14C48.9516 313.48 48.7283 312.607 48.7283 311.52C48.7283 310.433 48.9516 309.563 49.3983 308.91C49.8449 308.25 50.5383 307.92 51.4783 307.92C52.4183 307.92 53.1116 308.25 53.5583 308.91C54.0049 309.563 54.2283 310.433 54.2283 311.52C54.2283 312.607 54.0049 313.48 53.5583 314.14C53.1116 314.793 52.4183 315.12 51.4783 315.12ZM51.4783 313.99C51.9583 313.99 52.3049 313.763 52.5183 313.31C52.7316 312.857 52.8383 312.26 52.8383 311.52C52.8383 310.78 52.7316 310.183 52.5183 309.73C52.3049 309.277 51.9583 309.05 51.4783 309.05C50.9983 309.05 50.6516 309.277 50.4383 309.73C50.2249 310.183 50.1183 310.78 50.1183 311.52C50.1183 312.26 50.2249 312.857 50.4383 313.31C50.6516 313.763 50.9983 313.99 51.4783 313.99Z" fill="#A3A3A3"/>
<path d="M44.8247 361.455C43.8847 361.455 43.1914 361.129 42.7447 360.475C42.298 359.815 42.0747 358.942 42.0747 357.855C42.0747 356.769 42.298 355.899 42.7447 355.245C43.1914 354.585 43.8847 354.255 44.8247 354.255C45.7647 354.255 46.458 354.585 46.9047 355.245C47.3514 355.899 47.5747 356.769 47.5747 357.855C47.5747 358.942 47.3514 359.815 46.9047 360.475C46.458 361.129 45.7647 361.455 44.8247 361.455ZM44.8247 360.325C45.3047 360.325 45.6514 360.099 45.8647 359.645C46.078 359.192 46.1847 358.595 46.1847 357.855C46.1847 357.115 46.078 356.519 45.8647 356.065C45.6514 355.612 45.3047 355.385 44.8247 355.385C44.3447 355.385 43.998 355.612 43.7847 356.065C43.5714 356.519 43.4647 357.115 43.4647 357.855C43.4647 358.595 43.5714 359.192 43.7847 359.645C43.998 360.099 44.3447 360.325 44.8247 360.325Z" fill="#A3A3A3"/>
<path d="M73.0298 359.229H385.999" stroke="#737373" stroke-width="0.5" stroke-linecap="square"/>
<path d="M73.0298 312.894H385.999" stroke="#737373" stroke-width="0.5" stroke-linecap="square"/>
<path d="M73.0298 266.558H385.999" stroke="#737373" stroke-width="0.5" stroke-linecap="square"/>
<path d="M73.0298 220.223H385.999" stroke="#737373" stroke-width="0.5" stroke-linecap="square"/>
<path d="M73.0308 173.888H386" stroke="#737373" stroke-width="0.5" stroke-linecap="square"/>
<path d="M76 241.837C77.3963 239.935 83.3226 244.186 90.5727 241.775C96.2815 239.876 101.247 233.777 108.556 231.935C122.428 228.437 133.749 224.842 140.182 216.489C146.615 208.135 159.636 244.622 171.142 244.622C182.649 244.622 185.14 194.543 189.481 204.248C193.639 213.544 201.647 235.871 214.596 238.333C228.888 241.05 240.641 257.619 257.694 260.404C266.783 261.888 272.383 220.978 280.507 216.489C288.631 212 288.722 248.083 306.993 244.622C322.071 241.766 326.015 231.935 340.789 230.752C355.564 229.569 362.397 266.588 377.996 263.498" stroke="#FFD19C" stroke-width="2.50462" stroke-linecap="round" stroke-linejoin="round"/>
<path d="M73 304.027C74.4236 302.125 80.4655 306.376 87.8572 303.965C93.6774 302.066 98.7404 295.967 106.192 294.125C120.334 290.627 131.877 287.033 138.435 278.679C144.993 270.325 154.838 242 166.569 242C178.3 242 184.271 256.733 188.697 266.438C192.936 275.734 201.1 298.061 214.302 300.523C228.873 303.24 240.855 319.809 258.241 322.594C267.508 324.078 274.931 321.189 283.214 316.7C291.497 312.211 289.875 310.273 308.503 306.812C323.875 303.956 327.896 294.125 342.959 292.942C358.022 291.759 364.989 328.778 380.892 325.688" stroke="#BC7CE4" stroke-width="2.50462" stroke-linecap="round" stroke-linejoin="round"/>
<path d="M384 326.122C382.553 324.217 376.411 328.475 368.896 326.06C362.98 324.158 357.833 318.05 350.258 316.205C335.881 312.702 324.147 309.102 317.479 300.735C310.812 292.368 300.805 264 288.879 264C276.953 264 270.883 278.756 266.384 288.476C262.075 297.786 253.775 320.147 240.354 322.612C225.541 325.334 213.36 341.928 195.686 344.717C186.266 346.204 178.719 343.31 170.299 338.815C161.879 334.319 163.527 332.377 144.59 328.911C128.963 326.051 124.876 316.205 109.563 315.02C94.2497 313.835 87.1672 350.911 71 347.816" stroke="#EBEAF6" stroke-width="2.50462" stroke-linecap="round" stroke-linejoin="round"/>
</g>
<path d="M130.565 442.185L128.375 449.145H126.835L125.355 444.145L123.875 449.145H122.335L120.145 442.185H121.575L123.125 447.535L124.655 442.185H126.105L127.635 447.535L129.185 442.185H130.565ZM133.5 443.345V445.085H136.5V446.175H133.5V447.985H136.72V449.145H132.18V442.185H136.72V443.345H133.5ZM140.397 443.345V445.085H143.397V446.175H140.397V447.985H143.617V449.145H139.077V442.185H143.617V443.345H140.397ZM148.053 446.265L147.293 447.145V449.145H145.973V442.185H147.293V445.345L149.963 442.185H151.583L148.953 445.225L151.743 449.145H150.113L148.053 446.265Z" fill="#A3A3A3"/>
<path d="M173.972 449.145H172.652V443.855L170.812 449.145H169.432L167.552 443.865V449.145H166.232V442.185H168.302L170.142 447.345L171.932 442.185H173.972V449.145ZM179.707 449.265C178.994 449.265 178.38 449.118 177.867 448.825C177.354 448.531 176.964 448.115 176.697 447.575C176.43 447.035 176.297 446.398 176.297 445.665C176.297 444.931 176.43 444.295 176.697 443.755C176.964 443.215 177.354 442.798 177.867 442.505C178.38 442.211 178.994 442.065 179.707 442.065C180.42 442.065 181.034 442.211 181.547 442.505C182.06 442.798 182.45 443.215 182.717 443.755C182.984 444.295 183.117 444.931 183.117 445.665C183.117 446.398 182.984 447.035 182.717 447.575C182.45 448.115 182.06 448.531 181.547 448.825C181.034 449.118 180.42 449.265 179.707 449.265ZM179.707 448.045C180.334 448.045 180.827 447.841 181.187 447.435C181.547 447.021 181.727 446.431 181.727 445.665C181.727 444.898 181.547 444.311 181.187 443.905C180.827 443.491 180.334 443.285 179.707 443.285C179.08 443.285 178.587 443.491 178.227 443.905C177.867 444.311 177.687 444.898 177.687 445.665C177.687 446.431 177.867 447.021 178.227 447.435C178.587 447.841 179.08 448.045 179.707 448.045ZM191.375 442.185V449.145H190.055L186.755 444.545V449.145H185.435V442.185H186.755L190.055 446.775V442.185H191.375ZM195.443 443.395H193.463V442.185H198.743V443.395H196.763V449.145H195.443V443.395ZM206.77 442.185V449.145H205.45V446.085H202.15V449.145H200.83V442.185H202.15V444.915H205.45V442.185H206.77Z" fill="#A3A3A3"/>
<path d="M227.539 442.185L225.009 446.745V449.145H223.689V446.745L221.159 442.185H222.569L224.359 445.565L226.179 442.185H227.539ZM230.5 443.345V445.085H233.5V446.175H230.5V447.985H233.72V449.145H229.18V442.185H233.72V443.345H230.5ZM240.207 447.565H237.237L236.657 449.145H235.337L237.977 442.185H239.517L242.157 449.145H240.787L240.207 447.565ZM239.797 446.445L238.727 443.485L237.647 446.445H239.797ZM247.959 449.145L246.539 446.495H245.299V449.145H243.979V442.185H246.489C247.389 442.185 248.063 442.365 248.509 442.725C248.956 443.085 249.179 443.608 249.179 444.295C249.179 444.781 249.069 445.195 248.849 445.535C248.629 445.875 248.303 446.128 247.869 446.295L249.409 449.145H247.959ZM245.299 445.335H246.499C246.939 445.335 247.263 445.258 247.469 445.105C247.683 444.951 247.789 444.691 247.789 444.325C247.789 443.971 247.686 443.721 247.479 443.575C247.273 443.428 246.943 443.355 246.489 443.355H245.299V445.335Z" fill="#FFB526"/>
<path d="M266.387 444.775C266.834 444.775 267.23 444.871 267.577 445.065C267.924 445.258 268.194 445.525 268.387 445.865C268.58 446.205 268.677 446.585 268.677 447.005C268.677 447.458 268.564 447.855 268.337 448.195C268.11 448.535 267.79 448.798 267.377 448.985C266.964 449.165 266.484 449.255 265.937 449.255C265.517 449.255 265.104 449.201 264.697 449.095C264.29 448.981 263.93 448.821 263.617 448.615V447.335H263.657C263.957 447.568 264.317 447.758 264.737 447.905C265.157 448.051 265.547 448.125 265.907 448.125C266.334 448.125 266.677 448.021 266.937 447.815C267.197 447.601 267.327 447.325 267.327 446.985C267.327 446.665 267.214 446.405 266.987 446.205C266.767 446.005 266.477 445.905 266.117 445.905C265.637 445.905 265.18 446.081 264.747 446.435H264.707L263.837 446.165V446.115L264.287 442.185H268.347V443.335H265.387L265.197 445.035C265.577 444.861 265.974 444.775 266.387 444.775ZM279.541 442.185L277.011 446.745V449.145H275.691V446.745L273.161 442.185H274.571L276.361 445.565L278.181 442.185H279.541ZM282.502 443.345V445.085H285.502V446.175H282.502V447.985H285.722V449.145H281.182V442.185H285.722V443.345H282.502ZM292.209 447.565H289.239L288.659 449.145H287.339L289.979 442.185H291.519L294.159 449.145H292.789L292.209 447.565ZM291.799 446.445L290.729 443.485L289.649 446.445H291.799ZM299.961 449.145L298.541 446.495H297.301V449.145H295.981V442.185H298.491C299.391 442.185 300.065 442.365 300.511 442.725C300.958 443.085 301.181 443.608 301.181 444.295C301.181 444.781 301.071 445.195 300.851 445.535C300.631 445.875 300.305 446.128 299.871 446.295L301.411 449.145H299.961ZM297.301 445.335H298.501C298.941 445.335 299.265 445.258 299.471 445.105C299.685 444.951 299.791 444.691 299.791 444.325C299.791 443.971 299.688 443.721 299.481 443.575C299.275 443.428 298.945 443.355 298.491 443.355H297.301V445.335Z" fill="#A3A3A3"/>
</g>
</g>
<defs>
<filter id="filter0_d_340_8796" x="0" y="0" width="422" height="505.145" filterUnits="userSpaceOnUse" color-interpolation-filters="sRGB">
<feFlood flood-opacity="0" result="BackgroundImageFix"/>
<feColorMatrix in="SourceAlpha" type="matrix" values="0 0 0 0 0 0 0 0 0 0 0 0 0 0 0 0 0 0 127 0" result="hardAlpha"/>
<feOffset dy="8"/>
<feGaussianBlur stdDeviation="10"/>
<feComposite in2="hardAlpha" operator="out"/>
<feColorMatrix type="matrix" values="0 0 0 0 0 0 0 0 0 0 0 0 0 0 0 0 0 0 0.15 0"/>
<feBlend mode="normal" in2="BackgroundImageFix" result="effect1_dropShadow_340_8796"/>
<feBlend mode="normal" in="SourceGraphic" in2="effect1_dropShadow_340_8796" result="shape"/>
</filter>
<filter id="filter1_d_340_8796" x="11.9189" y="99" width="394.331" height="323.145" filterUnits="userSpaceOnUse" color-interpolation-filters="sRGB">
<feFlood flood-opacity="0" result="BackgroundImageFix"/>
<feColorMatrix in="SourceAlpha" type="matrix" values="0 0 0 0 0 0 0 0 0 0 0 0 0 0 0 0 0 0 127 0" result="hardAlpha"/>
<feOffset dy="4"/>
<feGaussianBlur stdDeviation="10"/>
<feComposite in2="hardAlpha" operator="out"/>
<feColorMatrix type="matrix" values="0 0 0 0 0.35498 0 0 0 0 0.279635 0 0 0 0 0.7375 0 0 0 0.3 0"/>
<feBlend mode="normal" in2="BackgroundImageFix" result="effect1_dropShadow_340_8796"/>
<feBlend mode="normal" in="SourceGraphic" in2="effect1_dropShadow_340_8796" result="shape"/>
</filter>
<linearGradient id="paint0_linear_340_8796" x1="122.5" y1="-3.45796" x2="414.402" y2="411.936" gradientUnits="userSpaceOnUse">
<stop offset="0.0078895" stop-color="white" stop-opacity="0.2"/>
<stop offset="1" stop-color="white" stop-opacity="0.05"/>
</linearGradient>
<clipPath id="clip0_340_8796">
<rect x="20" y="12" width="382" height="465.145" rx="8" fill="white"/>
</clipPath>
</defs>
</svg>
