<svg width="86" height="112" viewBox="0 0 86 112" fill="none" xmlns="http://www.w3.org/2000/svg">
<g filter="url(#filter0_d_557_6850)">
<mask id="path-1-inside-1_557_6850" fill="white">
<path d="M34.0807 92.0518C33.9058 92.3015 33.6909 92.6084 33.4432 93.0467C32.9873 94.0695 33.2735 94.4924 34.548 95.0353C35.0901 95.2325 35.4839 95.2553 35.786 95.2729C36.0256 95.2868 36.2075 95.2973 36.3598 95.3889V99.8081H45.6402V95.3889C45.7925 95.2973 45.9744 95.2868 46.214 95.2729C46.5161 95.2553 46.9099 95.2325 47.452 95.0353C48.7265 94.4924 49.0127 94.0695 48.5568 93.0467C48.3091 92.6084 48.0942 92.3015 47.9193 92.0518C47.6886 91.7224 47.5274 91.4922 47.452 91.1907C47.5623 90.7852 47.6675 90.3847 47.7727 89.9838C48.3979 87.6017 49.0264 85.2073 50.7664 81.6894C50.7967 81.642 50.8266 81.595 50.8563 81.5482C51.4298 80.6468 51.9191 79.8775 52.8434 79.8775C54.2715 79.8961 54.9776 79.8469 55.2298 79.1263C55.5572 77.7074 55.046 77.1571 54.2879 76.3411C54.1252 76.1659 53.9511 75.9785 53.7715 75.7677C55.0952 73.9755 55.9369 73.2487 57.8813 72.8068C58.982 72.6773 59.7407 72.6057 60.3529 72.5479C61.4122 72.4479 62.0331 72.3893 63.2285 72.1439C64.9774 71.5932 66.0141 71.0548 66.9575 69.625C67.5891 68.6571 67.7258 68.0526 67.6919 66.8952C67.669 66.5818 67.6336 66.2755 67.5951 65.9431C67.5532 65.5805 67.5077 65.187 67.471 64.7197C65.6259 55.2578 65.2419 46.3395 68.2222 35.4205C69.8062 29.677 72.3779 25.7817 74.6215 22.3832C75.1002 21.6581 75.5639 20.9556 76 20.2626C69.2474 22.3285 65.5098 24.6137 58.9419 30.7361C62.2457 30.3478 63.7837 30.4331 64.5543 31.3303C64.8291 31.7531 64.8688 32.08 64.6927 32.8573C63.8558 35.6222 61.2114 44.7984 60.0105 54.1136C59.7673 55.4261 59.6115 55.9552 59.3045 56.5884C58.4688 58.1751 56.6013 60.6338 53.0202 60.7424C51.1743 60.5674 50.2295 60.2826 48.8662 59.1073C48.5759 58.6684 48.346 58.36 48.1504 58.0978C47.6164 57.3815 47.3391 57.0095 46.7891 55.2626C44.927 46.1741 44.2754 39.9275 43.6957 27.0682L50.2361 31.2222L41 4L31.7639 31.2222L38.3043 27.0682C37.7246 39.9275 37.073 46.1741 35.2109 55.2626C34.6609 57.0095 34.3836 57.3815 33.8496 58.0978C33.654 58.36 33.4241 58.6684 33.1338 59.1073C31.7705 60.2826 30.8257 60.5674 28.9798 60.7424C25.3987 60.6338 23.5312 58.1751 22.6955 56.5884C22.3885 55.9552 22.2327 55.4261 21.9895 54.1136C20.7886 44.7984 18.1442 35.6222 17.3073 32.8573C17.1312 32.08 17.1709 31.7531 17.4457 31.3303C18.2163 30.4331 19.7543 30.3478 23.0581 30.7361C16.4902 24.6137 12.7526 22.3285 6 20.2626C6.43605 20.9556 6.89981 21.6581 7.3785 22.3832C9.62215 25.7817 12.1938 29.677 13.7778 35.4205C16.7581 46.3395 16.3741 55.2578 14.529 64.7197C14.4923 65.187 14.4468 65.5805 14.4049 65.9431C14.3664 66.2755 14.331 66.5818 14.3081 66.8952C14.2742 68.0526 14.4109 68.6571 15.0425 69.625C15.9859 71.0548 17.0226 71.5932 18.7715 72.1439C19.9669 72.3893 20.5878 72.4479 21.6471 72.5479C22.2593 72.6057 23.018 72.6773 24.1187 72.8068C26.0631 73.2487 26.9048 73.9755 28.2285 75.7677C28.0489 75.9785 27.8748 76.1659 27.7121 76.3411C26.954 77.1571 26.4428 77.7074 26.7702 79.1263C27.0224 79.8469 27.7285 79.8961 29.1566 79.8775C30.0809 79.8775 30.5702 80.6468 31.1437 81.5482C31.1734 81.595 31.2033 81.642 31.2336 81.6894C32.9736 85.2073 33.6021 87.6017 34.2273 89.9838C34.3325 90.3847 34.4377 90.7852 34.548 91.1907C34.4726 91.4922 34.3114 91.7224 34.0807 92.0518Z"/>
</mask>
<path d="M34.0807 92.0518C33.9058 92.3015 33.6909 92.6084 33.4432 93.0467C32.9873 94.0695 33.2735 94.4924 34.548 95.0353C35.0901 95.2325 35.4839 95.2553 35.786 95.2729C36.0256 95.2868 36.2075 95.2973 36.3598 95.3889V99.8081H45.6402V95.3889C45.7925 95.2973 45.9744 95.2868 46.214 95.2729C46.5161 95.2553 46.9099 95.2325 47.452 95.0353C48.7265 94.4924 49.0127 94.0695 48.5568 93.0467C48.3091 92.6084 48.0942 92.3015 47.9193 92.0518C47.6886 91.7224 47.5274 91.4922 47.452 91.1907C47.5623 90.7852 47.6675 90.3847 47.7727 89.9838C48.3979 87.6017 49.0264 85.2073 50.7664 81.6894C50.7967 81.642 50.8266 81.595 50.8563 81.5482C51.4298 80.6468 51.9191 79.8775 52.8434 79.8775C54.2715 79.8961 54.9776 79.8469 55.2298 79.1263C55.5572 77.7074 55.046 77.1571 54.2879 76.3411C54.1252 76.1659 53.9511 75.9785 53.7715 75.7677C55.0952 73.9755 55.9369 73.2487 57.8813 72.8068C58.982 72.6773 59.7407 72.6057 60.3529 72.5479C61.4122 72.4479 62.0331 72.3893 63.2285 72.1439C64.9774 71.5932 66.0141 71.0548 66.9575 69.625C67.5891 68.6571 67.7258 68.0526 67.6919 66.8952C67.669 66.5818 67.6336 66.2755 67.5951 65.9431C67.5532 65.5805 67.5077 65.187 67.471 64.7197C65.6259 55.2578 65.2419 46.3395 68.2222 35.4205C69.8062 29.677 72.3779 25.7817 74.6215 22.3832C75.1002 21.6581 75.5639 20.9556 76 20.2626C69.2474 22.3285 65.5098 24.6137 58.9419 30.7361C62.2457 30.3478 63.7837 30.4331 64.5543 31.3303C64.8291 31.7531 64.8688 32.08 64.6927 32.8573C63.8558 35.6222 61.2114 44.7984 60.0105 54.1136C59.7673 55.4261 59.6115 55.9552 59.3045 56.5884C58.4688 58.1751 56.6013 60.6338 53.0202 60.7424C51.1743 60.5674 50.2295 60.2826 48.8662 59.1073C48.5759 58.6684 48.346 58.36 48.1504 58.0978C47.6164 57.3815 47.3391 57.0095 46.7891 55.2626C44.927 46.1741 44.2754 39.9275 43.6957 27.0682L50.2361 31.2222L41 4L31.7639 31.2222L38.3043 27.0682C37.7246 39.9275 37.073 46.1741 35.2109 55.2626C34.6609 57.0095 34.3836 57.3815 33.8496 58.0978C33.654 58.36 33.4241 58.6684 33.1338 59.1073C31.7705 60.2826 30.8257 60.5674 28.9798 60.7424C25.3987 60.6338 23.5312 58.1751 22.6955 56.5884C22.3885 55.9552 22.2327 55.4261 21.9895 54.1136C20.7886 44.7984 18.1442 35.6222 17.3073 32.8573C17.1312 32.08 17.1709 31.7531 17.4457 31.3303C18.2163 30.4331 19.7543 30.3478 23.0581 30.7361C16.4902 24.6137 12.7526 22.3285 6 20.2626C6.43605 20.9556 6.89981 21.6581 7.3785 22.3832C9.62215 25.7817 12.1938 29.677 13.7778 35.4205C16.7581 46.3395 16.3741 55.2578 14.529 64.7197C14.4923 65.187 14.4468 65.5805 14.4049 65.9431C14.3664 66.2755 14.331 66.5818 14.3081 66.8952C14.2742 68.0526 14.4109 68.6571 15.0425 69.625C15.9859 71.0548 17.0226 71.5932 18.7715 72.1439C19.9669 72.3893 20.5878 72.4479 21.6471 72.5479C22.2593 72.6057 23.018 72.6773 24.1187 72.8068C26.0631 73.2487 26.9048 73.9755 28.2285 75.7677C28.0489 75.9785 27.8748 76.1659 27.7121 76.3411C26.954 77.1571 26.4428 77.7074 26.7702 79.1263C27.0224 79.8469 27.7285 79.8961 29.1566 79.8775C30.0809 79.8775 30.5702 80.6468 31.1437 81.5482C31.1734 81.595 31.2033 81.642 31.2336 81.6894C32.9736 85.2073 33.6021 87.6017 34.2273 89.9838C34.3325 90.3847 34.4377 90.7852 34.548 91.1907C34.4726 91.4922 34.3114 91.7224 34.0807 92.0518Z" fill="url(#paint0_linear_557_6850)"/>
<path d="M33.4432 93.0467L32.5291 92.5301L32.5045 92.5736L32.4842 92.6192L33.4432 93.0467ZM34.0807 92.0518L34.9408 92.6541H34.9408L34.0807 92.0518ZM34.548 95.0353L34.1364 96.0013L34.1625 96.0124L34.1891 96.0221L34.548 95.0353ZM35.786 95.2729L35.7252 96.3211H35.7252L35.786 95.2729ZM36.3598 95.3889H37.4098V94.7948L36.9006 94.4888L36.3598 95.3889ZM36.3598 99.8081H35.3098V100.858H36.3598V99.8081ZM45.6402 99.8081V100.858H46.6902V99.8081H45.6402ZM45.6402 95.3889L45.0994 94.4888L44.5902 94.7948V95.3889H45.6402ZM46.214 95.2729L46.2748 96.3211L46.214 95.2729ZM47.452 95.0353L47.8109 96.0221L47.8375 96.0124L47.8636 96.0013L47.452 95.0353ZM48.5568 93.0467L49.5158 92.6192L49.4955 92.5736L49.4709 92.5301L48.5568 93.0467ZM47.9193 92.0518L47.0592 92.6541L47.9193 92.0518ZM47.452 91.1907L46.4389 90.915L46.3669 91.1794L46.4334 91.4453L47.452 91.1907ZM47.7727 89.9838L46.7571 89.7173V89.7173L47.7727 89.9838ZM50.7664 81.6894L49.8816 81.1241L49.8507 81.1724L49.8252 81.2239L50.7664 81.6894ZM50.8563 81.5482L51.7423 82.1118V82.1118L50.8563 81.5482ZM52.8434 79.8775L52.8571 78.8275H52.8434V79.8775ZM55.2298 79.1263L56.2209 79.4731L56.2399 79.4186L56.2529 79.3624L55.2298 79.1263ZM54.2879 76.3411L55.0572 75.6264L55.0572 75.6264L54.2879 76.3411ZM53.7715 75.7677L52.9269 75.1439L52.4318 75.8142L52.9722 76.4486L53.7715 75.7677ZM57.8813 72.8068L57.7586 71.764L57.7031 71.7705L57.6486 71.7829L57.8813 72.8068ZM60.3529 72.5479L60.2543 71.5025H60.2543L60.3529 72.5479ZM63.2285 72.1439L63.4396 73.1725L63.4925 73.1617L63.5439 73.1455L63.2285 72.1439ZM66.9575 69.625L67.8339 70.2033L67.8368 70.1988L66.9575 69.625ZM67.6919 66.8952L68.7415 66.8645L68.7408 66.8415L68.7391 66.8186L67.6919 66.8952ZM67.5951 65.9431L66.5521 66.0637L67.5951 65.9431ZM67.471 64.7197L68.5177 64.6373L68.513 64.5776L68.5015 64.5187L67.471 64.7197ZM68.2222 35.4205L67.21 35.1413L67.2093 35.144L68.2222 35.4205ZM74.6215 22.3832L75.4978 22.9617L74.6215 22.3832ZM76 20.2626L76.8887 20.8218L78.392 18.4328L75.6928 19.2586L76 20.2626ZM58.9419 30.7361L58.226 29.9681L55.8821 32.153L59.0645 31.7789L58.9419 30.7361ZM64.5543 31.3303L65.4347 30.758L65.3965 30.6993L65.3508 30.6461L64.5543 31.3303ZM64.6927 32.8573L65.6977 33.1615L65.7085 33.1257L65.7168 33.0893L64.6927 32.8573ZM60.0105 54.1136L61.0429 54.305L61.0482 54.2766L61.0519 54.2479L60.0105 54.1136ZM59.3045 56.5884L60.2335 57.0777L60.2416 57.0622L60.2493 57.0465L59.3045 56.5884ZM53.0202 60.7424L52.9211 61.7877L52.9864 61.7939L53.052 61.7919L53.0202 60.7424ZM48.8662 59.1073L47.9904 59.6866L48.0705 59.8077L48.1806 59.9026L48.8662 59.1073ZM48.1504 58.0978L48.9923 57.4702L48.9922 57.4702L48.1504 58.0978ZM46.7891 55.2626L45.7605 55.4734L45.7714 55.5263L45.7876 55.5779L46.7891 55.2626ZM43.6957 27.0682L44.2587 26.1818L42.5559 25.1004L42.6468 27.1155L43.6957 27.0682ZM50.2361 31.2222L49.6732 32.1086L52.1874 33.7055L51.2304 30.8849L50.2361 31.2222ZM41 4L41.9943 3.66264L41 0.731989L40.0057 3.66264L41 4ZM31.7639 31.2222L30.7696 30.8849L29.8126 33.7055L32.3268 32.1086L31.7639 31.2222ZM38.3043 27.0682L39.3532 27.1155L39.4441 25.1004L37.7413 26.1818L38.3043 27.0682ZM35.2109 55.2626L36.2124 55.5779L36.2286 55.5263L36.2395 55.4734L35.2109 55.2626ZM33.8496 58.0978L33.0078 57.4702L33.0077 57.4702L33.8496 58.0978ZM33.1338 59.1073L33.8194 59.9026L33.9295 59.8077L34.0096 59.6866L33.1338 59.1073ZM28.9798 60.7424L28.948 61.7919L29.0136 61.7939L29.0789 61.7877L28.9798 60.7424ZM22.6955 56.5884L21.7507 57.0465L21.7584 57.0622L21.7665 57.0777L22.6955 56.5884ZM21.9895 54.1136L20.9481 54.2479L20.9518 54.2765L20.9571 54.305L21.9895 54.1136ZM17.3073 32.8573L16.2832 33.0893L16.2915 33.1257L16.3023 33.1615L17.3073 32.8573ZM17.4457 31.3303L16.6492 30.6461L16.6035 30.6993L16.5653 30.758L17.4457 31.3303ZM23.0581 30.7361L22.9355 31.7789L26.1179 32.153L23.774 29.9681L23.0581 30.7361ZM6 20.2626L6.30719 19.2586L3.60799 18.4328L5.1113 20.8218L6 20.2626ZM7.3785 22.3832L6.50223 22.9617H6.50223L7.3785 22.3832ZM13.7778 35.4205L14.7907 35.144L14.79 35.1413L13.7778 35.4205ZM14.529 64.7197L13.4985 64.5187L13.487 64.5776L13.4823 64.6373L14.529 64.7197ZM14.4049 65.9431L15.4479 66.0637L14.4049 65.9431ZM14.3081 66.8952L13.2609 66.8186L13.2592 66.8415L13.2585 66.8645L14.3081 66.8952ZM15.0425 69.625L14.1632 70.1988L14.1661 70.2033L15.0425 69.625ZM18.7715 72.1439L18.4561 73.1455L18.5075 73.1617L18.5604 73.1725L18.7715 72.1439ZM21.6471 72.5479L21.7457 71.5025H21.7457L21.6471 72.5479ZM24.1187 72.8068L24.3514 71.7829L24.2969 71.7705L24.2414 71.764L24.1187 72.8068ZM28.2285 75.7677L29.0278 76.4486L29.5682 75.8142L29.0731 75.1439L28.2285 75.7677ZM27.7121 76.3411L26.9428 75.6264L26.9428 75.6264L27.7121 76.3411ZM26.7702 79.1263L25.7471 79.3624L25.7601 79.4186L25.7791 79.4731L26.7702 79.1263ZM29.1566 79.8775V78.8274L29.1429 78.8276L29.1566 79.8775ZM31.1437 81.5482L30.2577 82.1118L30.2577 82.1118L31.1437 81.5482ZM31.2336 81.6894L32.1747 81.2239L32.1493 81.1724L32.1184 81.1241L31.2336 81.6894ZM34.2273 89.9838L35.2429 89.7173L35.2429 89.7173L34.2273 89.9838ZM34.548 91.1907L35.5666 91.4453L35.6331 91.1794L35.5611 90.915L34.548 91.1907ZM34.3573 93.5634C34.5787 93.1716 34.7691 92.8992 34.9408 92.6541L33.2207 91.4494C33.0425 91.7038 32.8032 92.0452 32.5291 92.5301L34.3573 93.5634ZM34.9595 94.0694C34.6648 93.9438 34.4751 93.8448 34.354 93.7644C34.2334 93.6844 34.2336 93.6572 34.2562 93.6963C34.2905 93.7558 34.2896 93.8113 34.29 93.8072C34.2926 93.7778 34.3107 93.6794 34.4022 93.4742L32.4842 92.6192C32.2226 93.2059 31.9996 93.9871 32.4371 94.7456C32.8058 95.3848 33.5179 95.7378 34.1364 96.0013L34.9595 94.0694ZM35.8468 94.2246C35.573 94.2087 35.3024 94.1924 34.9068 94.0486L34.1891 96.0221C34.8779 96.2726 35.3949 96.3019 35.7252 96.3211L35.8468 94.2246ZM36.9006 94.4888C36.4827 94.2378 36.0123 94.2342 35.8468 94.2246L35.7252 96.3211C35.7879 96.3248 35.831 96.3273 35.8691 96.3305C35.9061 96.3335 35.9244 96.336 35.9322 96.3373C35.9449 96.3395 35.8911 96.3322 35.8191 96.2889L36.9006 94.4888ZM37.4098 99.8081V95.3889H35.3098V99.8081H37.4098ZM46.6902 99.8081V95.3889H44.5902V99.8081H46.6902ZM46.1809 96.2889C46.1089 96.3322 46.0551 96.3395 46.0678 96.3373C46.0756 96.336 46.0939 96.3335 46.1309 96.3305C46.169 96.3273 46.2121 96.3248 46.2748 96.3211L46.1532 94.2246C45.9877 94.2342 45.5173 94.2378 45.0994 94.4888L46.1809 96.2889ZM46.2748 96.3211C46.6051 96.3019 47.1221 96.2726 47.8109 96.0221L47.0932 94.0486C46.6976 94.1924 46.427 94.2087 46.1532 94.2246L46.2748 96.3211ZM47.8636 96.0013C48.4821 95.7378 49.1942 95.3848 49.5629 94.7456C50.0004 93.9871 49.7774 93.2059 49.5158 92.6192L47.5978 93.4742C47.6893 93.6794 47.7074 93.7778 47.71 93.8072C47.7104 93.8113 47.7095 93.7558 47.7438 93.6963C47.7664 93.6572 47.7666 93.6844 47.646 93.7644C47.5249 93.8448 47.3352 93.9438 47.0405 94.0694L47.8636 96.0013ZM49.4709 92.5301C49.1968 92.0452 48.9575 91.7038 48.7793 91.4494L47.0592 92.6541C47.2309 92.8992 47.4213 93.1716 47.6427 93.5634L49.4709 92.5301ZM48.7793 91.4494C48.5255 91.0871 48.4907 91.0159 48.4707 90.936L46.4334 91.4453C46.5642 91.9686 46.8516 92.3577 47.0592 92.6541L48.7793 91.4494ZM48.4652 91.4663C48.5769 91.0556 48.6832 90.6505 48.7883 90.2504L46.7571 89.7173C46.6517 90.1188 46.5477 90.5148 46.4389 90.915L48.4652 91.4663ZM48.7883 90.2504C49.4084 87.8878 50.0155 85.5758 51.7076 82.1549L49.8252 81.2239C48.0372 84.8388 47.3875 87.3156 46.7571 89.7173L48.7883 90.2504ZM51.6513 82.2547C51.6821 82.2063 51.7126 82.1584 51.7423 82.1118L49.9704 80.9847C49.9406 81.0315 49.9112 81.0778 49.8816 81.1241L51.6513 82.2547ZM51.7423 82.1118C52.0474 81.6321 52.2479 81.3271 52.4552 81.1228C52.6224 80.9581 52.7246 80.9275 52.8434 80.9275V78.8275C52.0379 78.8275 51.4333 79.1816 50.9814 79.6269C50.5696 80.0326 50.2387 80.5629 49.9704 80.9847L51.7423 82.1118ZM52.8298 80.9274C53.5099 80.9363 54.1923 80.9375 54.7407 80.7956C55.0391 80.7184 55.3541 80.5866 55.6324 80.3494C55.9181 80.1059 56.1058 79.802 56.2209 79.4731L54.2387 78.7794C54.2277 78.8108 54.2325 78.7833 54.2703 78.7511C54.3007 78.7252 54.3026 78.7398 54.2144 78.7626C53.9897 78.8208 53.6051 78.8373 52.8571 78.8276L52.8298 80.9274ZM56.2529 79.3624C56.4532 78.4946 56.4222 77.7623 56.1285 77.0882C55.8619 76.4762 55.4063 76.0022 55.0572 75.6264L53.5187 77.0558C53.9276 77.4959 54.1067 77.7051 54.2033 77.9269C54.2729 78.0867 54.3339 78.339 54.2067 78.8902L56.2529 79.3624ZM55.0572 75.6264C54.8931 75.4498 54.7337 75.278 54.5708 75.0868L52.9722 76.4486C53.1685 76.679 53.3573 76.8821 53.5187 77.0558L55.0572 75.6264ZM54.6161 76.3915C55.2643 75.5138 55.7309 74.9878 56.2208 74.623C56.6898 74.2737 57.2389 74.0296 58.114 73.8307L57.6486 71.7829C56.5793 72.0259 55.7353 72.3662 54.9664 72.9388C54.2184 73.4958 53.6023 74.2293 52.9269 75.1439L54.6161 76.3915ZM58.004 73.8496C59.0924 73.7216 59.8415 73.6508 60.4516 73.5933L60.2543 71.5025C59.6399 71.5605 58.8716 71.6331 57.7586 71.764L58.004 73.8496ZM60.4516 73.5933C61.5216 73.4922 62.1876 73.4295 63.4396 73.1725L63.0174 71.1154C61.8786 71.3491 61.3027 71.4036 60.2543 71.5025L60.4516 73.5933ZM63.5439 73.1455C64.4448 72.8618 65.2475 72.5563 65.9621 72.0979C66.6953 71.6274 67.2914 71.0255 67.8339 70.2033L66.0811 69.0467C65.6802 69.6542 65.2863 70.0364 64.8281 70.3303C64.3513 70.6363 63.7612 70.8754 62.9132 71.1424L63.5439 73.1455ZM67.8368 70.1988C68.1889 69.6593 68.4429 69.1605 68.5902 68.5965C68.7358 68.0392 68.7596 67.4841 68.7415 66.8645L66.6424 66.9259C66.6581 67.4636 66.6305 67.7895 66.5584 68.0658C66.4879 68.3354 66.3577 68.6228 66.0782 69.0511L67.8368 70.1988ZM68.7391 66.8186C68.7143 66.4795 68.6762 66.151 68.6382 65.8225L66.5521 66.0637C66.591 66.3999 66.6237 66.6842 66.6447 66.9718L68.7391 66.8186ZM68.6382 65.8225C68.5962 65.4596 68.5528 65.0833 68.5177 64.6373L66.4242 64.802C66.4626 65.2906 66.5102 65.7014 66.5521 66.0637L68.6382 65.8225ZM68.5015 64.5187C66.6794 55.1744 66.3071 46.4246 69.2352 35.6969L67.2093 35.144C64.1768 46.2543 64.5724 55.3412 66.4404 64.9207L68.5015 64.5187ZM69.2344 35.6996C70.7706 30.1297 73.2582 26.354 75.4978 22.9617L73.7452 21.8047C71.4975 25.2094 68.8418 29.2244 67.21 35.1413L69.2344 35.6996ZM75.4978 22.9617C75.9752 22.2384 76.4455 21.5262 76.8887 20.8218L75.1113 19.7034C74.6824 20.385 74.2252 21.0777 73.7452 21.8047L75.4978 22.9617ZM75.6928 19.2586C72.2594 20.309 69.5491 21.4289 66.8526 23.0832C64.1661 24.7314 61.5307 26.8874 58.226 29.9681L59.6579 31.5042C62.921 28.4624 65.4383 26.4146 67.9508 24.8732C70.4533 23.3378 72.9881 22.2822 76.3072 21.2667L75.6928 19.2586ZM59.0645 31.7789C60.7117 31.5853 61.8254 31.5229 62.5987 31.5964C63.3531 31.6681 63.6197 31.8537 63.7578 32.0144L65.3508 30.6461C64.7183 29.9097 63.8307 29.604 62.7974 29.5058C61.7831 29.4095 60.4759 29.4986 58.8194 29.6933L59.0645 31.7789ZM63.6739 31.9025C63.7474 32.0155 63.7456 32.0426 63.7474 32.0613C63.7532 32.122 63.7502 32.2653 63.6687 32.6254L65.7168 33.0893C65.8113 32.672 65.8765 32.2632 65.8378 31.8604C65.795 31.4156 65.636 31.0678 65.4347 30.758L63.6739 31.9025ZM63.6878 32.5531C62.8459 35.3346 60.1813 44.5768 58.9691 53.9794L61.0519 54.2479C62.2415 45.02 64.8658 35.9099 65.6977 33.1615L63.6878 32.5531ZM58.9781 53.9223C58.7408 55.2025 58.6056 55.6232 58.3597 56.1303L60.2493 57.0465C60.6174 56.2873 60.7937 55.6498 61.0429 54.305L58.9781 53.9223ZM58.3754 56.0991C57.6133 57.5462 56.0131 59.6012 52.9884 59.6929L53.052 61.7919C57.1895 61.6665 59.3243 58.804 60.2335 57.0777L58.3754 56.0991ZM53.1193 59.6971C52.2227 59.6121 51.6366 59.5072 51.1322 59.3173C50.6426 59.133 50.1704 58.8454 49.5517 58.312L48.1806 59.9026C48.9252 60.5445 49.6071 60.987 50.3922 61.2826C51.1625 61.5726 51.9718 61.6977 52.9211 61.7877L53.1193 59.6971ZM49.7419 58.5281C49.4345 58.0632 49.1898 57.7352 48.9923 57.4702L47.3086 58.7254C47.5021 58.9849 47.7173 59.2736 47.9904 59.6866L49.7419 58.5281ZM48.9922 57.4702C48.7236 57.1099 48.5707 56.9018 48.4108 56.5889C48.2453 56.2651 48.0591 55.8 47.7907 54.9473L45.7876 55.5779C46.0691 56.4721 46.2965 57.0664 46.5407 57.5444C46.7905 58.0333 47.0432 58.3694 47.3086 58.7254L48.9922 57.4702ZM47.8178 55.0519C45.9706 46.0362 45.323 39.8488 44.7446 27.0209L42.6468 27.1155C43.2279 40.0063 43.8835 46.312 45.7605 55.4734L47.8178 55.0519ZM43.1328 27.9545L49.6732 32.1086L50.7991 30.3359L44.2587 26.1818L43.1328 27.9545ZM51.2304 30.8849L41.9943 3.66264L40.0057 4.33736L49.2418 31.5596L51.2304 30.8849ZM32.7582 31.5596L41.9943 4.33736L40.0057 3.66264L30.7696 30.8849L32.7582 31.5596ZM37.7413 26.1818L31.2009 30.3359L32.3268 32.1086L38.8672 27.9545L37.7413 26.1818ZM36.2395 55.4734C38.1165 46.312 38.7721 40.0063 39.3532 27.1155L37.2554 27.0209C36.677 39.8488 36.0294 46.0362 34.1822 55.0519L36.2395 55.4734ZM34.6914 58.7254C34.9568 58.3694 35.2095 58.0333 35.4593 57.5444C35.7035 57.0664 35.9309 56.4721 36.2124 55.5779L34.2093 54.9473C33.9409 55.8 33.7547 56.2651 33.5892 56.5889C33.4293 56.9018 33.2764 57.1099 33.0078 57.4702L34.6914 58.7254ZM34.0096 59.6866C34.2827 59.2736 34.4979 58.9849 34.6914 58.7254L33.0077 57.4702C32.8102 57.7352 32.5655 58.0632 32.2581 58.5281L34.0096 59.6866ZM29.0789 61.7877C30.0282 61.6977 30.8375 61.5726 31.6078 61.2826C32.3929 60.987 33.0748 60.5445 33.8194 59.9026L32.4483 58.312C31.8296 58.8454 31.3574 59.133 30.8678 59.3173C30.3634 59.5072 29.7773 59.6121 28.8807 59.6971L29.0789 61.7877ZM21.7665 57.0777C22.6757 58.804 24.8105 61.6665 28.948 61.7919L29.0116 59.6929C25.9869 59.6012 24.3867 57.5462 23.6246 56.0991L21.7665 57.0777ZM20.9571 54.305C21.2063 55.6498 21.3826 56.2873 21.7507 57.0465L23.6403 56.1303C23.3944 55.6232 23.2592 55.2025 23.0219 53.9223L20.9571 54.305ZM16.3023 33.1615C17.1342 35.9099 19.7585 45.02 20.9481 54.2479L23.0309 53.9794C21.8187 44.5768 19.1541 35.3346 18.3122 32.5531L16.3023 33.1615ZM16.5653 30.758C16.364 31.0678 16.205 31.4156 16.1622 31.8604C16.1235 32.2632 16.1887 32.672 16.2832 33.0893L18.3313 32.6253C18.2498 32.2653 18.2468 32.122 18.2526 32.0613C18.2544 32.0426 18.2526 32.0155 18.3261 31.9025L16.5653 30.758ZM23.1806 29.6933C21.5241 29.4986 20.2169 29.4095 19.2026 29.5058C18.1693 29.604 17.2817 29.9097 16.6492 30.6461L18.2422 32.0144C18.3803 31.8537 18.6469 31.6681 19.4013 31.5964C20.1746 31.5229 21.2883 31.5853 22.9355 31.7789L23.1806 29.6933ZM5.69281 21.2667C9.01193 22.2822 11.5467 23.3378 14.0492 24.8732C16.5617 26.4146 19.079 28.4624 22.3421 31.5042L23.774 29.9681C20.4693 26.8874 17.8339 24.7314 15.1474 23.0832C12.4509 21.4289 9.74063 20.309 6.30719 19.2586L5.69281 21.2667ZM8.25476 21.8047C7.77484 21.0777 7.31756 20.385 6.8887 19.7034L5.1113 20.8218C5.55454 21.5262 6.02478 22.2384 6.50223 22.9617L8.25476 21.8047ZM14.79 35.1413C13.1582 29.2244 10.5025 25.2094 8.25476 21.8047L6.50223 22.9617C8.74179 26.354 11.2294 30.1297 12.7656 35.6996L14.79 35.1413ZM15.5596 64.9207C17.4276 55.3412 17.8232 46.2543 14.7907 35.144L12.7648 35.6969C15.6929 46.4246 15.3206 55.1744 13.4985 64.5187L15.5596 64.9207ZM15.4479 66.0637C15.4898 65.7015 15.5374 65.2906 15.5758 64.802L13.4823 64.6373C13.4472 65.0833 13.4038 65.4596 13.3618 65.8225L15.4479 66.0637ZM15.3553 66.9718C15.3763 66.6842 15.409 66.3999 15.4479 66.0637L13.3618 65.8225C13.3238 66.1511 13.2857 66.4795 13.2609 66.8186L15.3553 66.9718ZM15.9218 69.0511C15.6423 68.6228 15.5121 68.3354 15.4416 68.0658C15.3695 67.7895 15.3419 67.4636 15.3576 66.9259L13.2585 66.8645C13.2404 67.4841 13.2642 68.0392 13.4098 68.5965C13.5571 69.1605 13.8111 69.6593 14.1632 70.1988L15.9218 69.0511ZM19.0868 71.1424C18.2388 70.8754 17.6487 70.6363 17.1719 70.3303C16.7137 70.0364 16.3198 69.6542 15.9189 69.0467L14.1661 70.2033C14.7086 71.0255 15.3047 71.6274 16.0379 72.0979C16.7525 72.5563 17.5552 72.8618 18.4561 73.1455L19.0868 71.1424ZM21.7457 71.5025C20.6973 71.4036 20.1214 71.3491 18.9826 71.1154L18.5604 73.1725C19.8124 73.4295 20.4784 73.4922 21.5484 73.5933L21.7457 71.5025ZM24.2414 71.764C23.1284 71.6331 22.3601 71.5605 21.7457 71.5025L21.5484 73.5933C22.1585 73.6508 22.9076 73.7216 23.996 73.8496L24.2414 71.764ZM29.0731 75.1439C28.3977 74.2293 27.7816 73.4958 27.0336 72.9388C26.2647 72.3662 25.4207 72.0259 24.3514 71.7829L23.886 73.8307C24.7611 74.0296 25.3102 74.2737 25.7792 74.623C26.2691 74.9878 26.7357 75.5138 27.3839 76.3915L29.0731 75.1439ZM28.4813 77.0558C28.6427 76.8821 28.8315 76.679 29.0278 76.4486L27.4292 75.0868C27.2663 75.278 27.1069 75.4498 26.9428 75.6264L28.4813 77.0558ZM27.7933 78.8902C27.6661 78.339 27.7271 78.0867 27.7967 77.9269C27.8933 77.7051 28.0724 77.4959 28.4813 77.0558L26.9428 75.6264C26.5937 76.0022 26.1381 76.4762 25.8715 77.0882C25.5778 77.7623 25.5468 78.4946 25.7471 79.3624L27.7933 78.8902ZM29.1429 78.8276C28.3949 78.8373 28.0103 78.8208 27.7856 78.7626C27.6974 78.7398 27.6993 78.7252 27.7297 78.7511C27.7675 78.7833 27.7723 78.8108 27.7613 78.7794L25.7791 79.4731C25.8942 79.802 26.0819 80.1059 26.3676 80.3494C26.6459 80.5866 26.9609 80.7184 27.2593 80.7956C27.8077 80.9375 28.4901 80.9363 29.1702 80.9274L29.1429 78.8276ZM32.0296 80.9847C31.7613 80.5629 31.4304 80.0326 31.0186 79.6269C30.5667 79.1816 29.9621 78.8275 29.1566 78.8275V80.9275C29.2754 80.9275 29.3776 80.9581 29.5448 81.1228C29.7521 81.3271 29.9526 81.6321 30.2577 82.1118L32.0296 80.9847ZM32.1184 81.1241C32.0888 81.0778 32.0594 81.0315 32.0296 80.9847L30.2577 82.1118C30.2874 82.1584 30.3179 82.2063 30.3487 82.2547L32.1184 81.1241ZM35.2429 89.7173C34.6125 87.3156 33.9628 84.8388 32.1747 81.2239L30.2924 82.1549C31.9845 85.5758 32.5916 87.8878 33.2117 90.2504L35.2429 89.7173ZM35.5611 90.915C35.4523 90.5148 35.3483 90.1188 35.2429 89.7173L33.2117 90.2504C33.3168 90.6505 33.4231 91.0556 33.5348 91.4663L35.5611 90.915ZM34.9408 92.6541C35.1484 92.3577 35.4358 91.9686 35.5666 91.4453L33.5293 90.936C33.5093 91.0159 33.4745 91.0871 33.2207 91.4494L34.9408 92.6541ZM45.6402 98.7581H36.3598V100.858H45.6402V98.7581Z" fill="url(#paint1_linear_557_6850)" mask="url(#path-1-inside-1_557_6850)"/>
</g>
<defs>
<filter id="filter0_d_557_6850" x="0" y="0" width="86" height="111.808" filterUnits="userSpaceOnUse" color-interpolation-filters="sRGB">
<feFlood flood-opacity="0" result="BackgroundImageFix"/>
<feColorMatrix in="SourceAlpha" type="matrix" values="0 0 0 0 0 0 0 0 0 0 0 0 0 0 0 0 0 0 127 0" result="hardAlpha"/>
<feOffset dx="2" dy="4"/>
<feGaussianBlur stdDeviation="4"/>
<feComposite in2="hardAlpha" operator="out"/>
<feColorMatrix type="matrix" values="0 0 0 0 0 0 0 0 0 0 0 0 0 0 0 0 0 0 0.25 0"/>
<feBlend mode="normal" in2="BackgroundImageFix" result="effect1_dropShadow_557_6850"/>
<feBlend mode="normal" in="SourceGraphic" in2="effect1_dropShadow_557_6850" result="shape"/>
</filter>
<linearGradient id="paint0_linear_557_6850" x1="27.5537" y1="108.011" x2="63.9378" y2="10.3277" gradientUnits="userSpaceOnUse">
<stop offset="0.0455209" stop-color="#0F0F0F"/>
<stop offset="1" stop-color="#212121" stop-opacity="0.5"/>
</linearGradient>
<linearGradient id="paint1_linear_557_6850" x1="82" y1="36.5" x2="-9.5" y2="112.5" gradientUnits="userSpaceOnUse">
<stop stop-color="#FFA800"/>
<stop offset="1" stop-color="white" stop-opacity="0"/>
</linearGradient>
</defs>
</svg>
