<svg width="422" height="371" viewBox="0 0 422 371" fill="none" xmlns="http://www.w3.org/2000/svg">
<g filter="url(#filter0_d_557_7211)">
<rect x="20" y="12" width="382" height="331" rx="8" fill="white"/>
<rect x="36" y="32" width="122" height="27" rx="13.5" fill="#EBEAF6"/>
<path d="M51.8423 40.95H49.0703V39.256H56.4623V40.95H53.6903V49H51.8423V40.95ZM60.7474 49.168C60.0101 49.168 59.3614 49.014 58.8014 48.706C58.2414 48.3887 57.8074 47.9407 57.4994 47.362C57.2007 46.7833 57.0514 46.1113 57.0514 45.346C57.0514 44.5807 57.2007 43.9087 57.4994 43.33C57.8074 42.7513 58.2414 42.308 58.8014 42C59.3614 41.6827 60.0101 41.524 60.7474 41.524C61.4847 41.524 62.1334 41.6827 62.6934 42C63.2534 42.308 63.6827 42.7513 63.9814 43.33C64.2894 43.9087 64.4434 44.5807 64.4434 45.346C64.4434 46.1113 64.2894 46.7833 63.9814 47.362C63.6827 47.9407 63.2534 48.3887 62.6934 48.706C62.1334 49.014 61.4847 49.168 60.7474 49.168ZM60.7474 47.642C61.2981 47.642 61.7274 47.446 62.0354 47.054C62.3434 46.6527 62.4974 46.0833 62.4974 45.346C62.4974 44.5993 62.3434 44.03 62.0354 43.638C61.7274 43.246 61.2981 43.05 60.7474 43.05C60.1967 43.05 59.7674 43.246 59.4594 43.638C59.1514 44.03 58.9974 44.5993 58.9974 45.346C58.9974 46.0833 59.1514 46.6527 59.4594 47.054C59.7674 47.446 60.1967 47.642 60.7474 47.642ZM68.3725 41.692H70.0525V43.064H68.3725V46.592C68.3725 47.3013 68.6431 47.656 69.1845 47.656C69.4365 47.656 69.7305 47.5673 70.0665 47.39V48.916C69.8331 49 69.6138 49.0607 69.4085 49.098C69.2125 49.1447 68.9885 49.168 68.7365 49.168C67.2618 49.168 66.5245 48.3093 66.5245 46.592V43.064H65.4605V41.692H66.5245V39.732L68.3725 39.088V41.692ZM76.2599 49L76.0779 48.118C75.4153 48.818 74.6173 49.168 73.6839 49.168C72.9466 49.168 72.3446 48.9767 71.8779 48.594C71.4206 48.2113 71.1919 47.7073 71.1919 47.082C71.1919 46.27 71.4906 45.64 72.0879 45.192C72.6946 44.7347 73.5673 44.506 74.7059 44.506C75.1166 44.506 75.5273 44.5247 75.9379 44.562V44.296C75.9379 43.8853 75.8213 43.582 75.5879 43.386C75.3546 43.1807 74.9859 43.078 74.4819 43.078C73.9873 43.078 73.5253 43.162 73.0959 43.33C72.6759 43.4887 72.2186 43.75 71.7239 44.114V42.462C72.1533 42.1353 72.6013 41.8973 73.0679 41.748C73.5346 41.5987 74.0479 41.524 74.6079 41.524C75.6439 41.524 76.4326 41.748 76.9739 42.196C77.5246 42.6347 77.7999 43.2787 77.7999 44.128V47.376L78.1079 49H76.2599ZM73.0399 46.942C73.0399 47.4833 73.3479 47.754 73.9639 47.754C74.3186 47.754 74.6546 47.684 74.9719 47.544C75.2893 47.3947 75.6113 47.1613 75.9379 46.844V45.85H74.5939C74.0526 45.85 73.6559 45.9293 73.4039 46.088C73.1613 46.2467 73.0399 46.5313 73.0399 46.942ZM79.565 38.444H81.413V49H79.565V38.444ZM93.1107 49L91.1227 45.29H89.3867V49H87.5387V39.256H91.0527C92.3127 39.256 93.2553 39.508 93.8807 40.012C94.506 40.516 94.8187 41.2487 94.8187 42.21C94.8187 42.8913 94.6647 43.47 94.3567 43.946C94.0487 44.422 93.5913 44.7767 92.9847 45.01L95.1407 49H93.1107ZM89.3867 43.666H91.0667C91.6827 43.666 92.1353 43.5587 92.4247 43.344C92.7233 43.1293 92.8727 42.7653 92.8727 42.252C92.8727 41.7573 92.728 41.4073 92.4387 41.202C92.1493 40.9967 91.6873 40.894 91.0527 40.894H89.3867V43.666ZM103.459 45.906H98.3774C98.4521 46.466 98.6574 46.8953 98.9934 47.194C99.3387 47.4927 99.7961 47.642 100.365 47.642C100.785 47.642 101.238 47.5673 101.723 47.418C102.218 47.2593 102.675 47.0447 103.095 46.774H103.151V48.272C102.778 48.5613 102.349 48.7853 101.863 48.944C101.387 49.0933 100.883 49.168 100.351 49.168C99.5861 49.168 98.9187 49.014 98.3494 48.706C97.7801 48.398 97.3414 47.9547 97.0334 47.376C96.7254 46.7973 96.5714 46.1207 96.5714 45.346C96.5714 44.59 96.7161 43.9227 97.0054 43.344C97.3041 42.7653 97.7194 42.3173 98.2514 42C98.7834 41.6827 99.3994 41.524 100.099 41.524C100.781 41.524 101.373 41.678 101.877 41.986C102.391 42.294 102.783 42.7373 103.053 43.316C103.324 43.8947 103.459 44.5713 103.459 45.346V45.906ZM100.099 43.008C99.6607 43.008 99.2921 43.1527 98.9934 43.442C98.7041 43.7313 98.5081 44.1327 98.4054 44.646H101.555C101.481 44.114 101.322 43.708 101.079 43.428C100.837 43.148 100.51 43.008 100.099 43.008ZM111.784 41.692L109.082 49H106.786L104.084 41.692H105.96L107.962 47.46L109.964 41.692H111.784ZM119.134 45.906H114.052C114.127 46.466 114.332 46.8953 114.668 47.194C115.014 47.4927 115.471 47.642 116.04 47.642C116.46 47.642 116.913 47.5673 117.398 47.418C117.893 47.2593 118.35 47.0447 118.77 46.774H118.826V48.272C118.453 48.5613 118.024 48.7853 117.538 48.944C117.062 49.0933 116.558 49.168 116.026 49.168C115.261 49.168 114.594 49.014 114.024 48.706C113.455 48.398 113.016 47.9547 112.708 47.376C112.4 46.7973 112.246 46.1207 112.246 45.346C112.246 44.59 112.391 43.9227 112.68 43.344C112.979 42.7653 113.394 42.3173 113.926 42C114.458 41.6827 115.074 41.524 115.774 41.524C116.456 41.524 117.048 41.678 117.552 41.986C118.066 42.294 118.458 42.7373 118.728 43.316C118.999 43.8947 119.134 44.5713 119.134 45.346V45.906ZM115.774 43.008C115.336 43.008 114.967 43.1527 114.668 43.442C114.379 43.7313 114.183 44.1327 114.08 44.646H117.23C117.156 44.114 116.997 43.708 116.754 43.428C116.512 43.148 116.185 43.008 115.774 43.008ZM124.939 41.524C125.676 41.524 126.269 41.7433 126.717 42.182C127.174 42.6113 127.403 43.1807 127.403 43.89V49H125.555V44.94C125.555 44.3053 125.457 43.8527 125.261 43.582C125.074 43.302 124.762 43.162 124.323 43.162C123.838 43.162 123.324 43.4327 122.783 43.974V49H120.935V43.316L120.627 41.692H122.321L122.587 42.63C122.988 42.238 123.376 41.958 123.749 41.79C124.122 41.6127 124.519 41.524 124.939 41.524ZM134.776 49L134.51 48.048C134.034 48.468 133.614 48.762 133.25 48.93C132.895 49.0887 132.489 49.168 132.032 49.168C131.593 49.168 131.192 49.0653 130.828 48.86C130.473 48.6547 130.193 48.3747 129.988 48.02C129.792 47.656 129.694 47.25 129.694 46.802V41.692H131.542V45.752C131.542 46.34 131.635 46.7833 131.822 47.082C132.009 47.3807 132.279 47.53 132.634 47.53C132.933 47.53 133.213 47.4647 133.474 47.334C133.735 47.2033 134.015 46.9933 134.314 46.704V41.692H136.162V47.376L136.47 49H134.776ZM145.019 45.906H139.937C140.012 46.466 140.217 46.8953 140.553 47.194C140.899 47.4927 141.356 47.642 141.925 47.642C142.345 47.642 142.798 47.5673 143.283 47.418C143.778 47.2593 144.235 47.0447 144.655 46.774H144.711V48.272C144.338 48.5613 143.909 48.7853 143.423 48.944C142.947 49.0933 142.443 49.168 141.911 49.168C141.146 49.168 140.479 49.014 139.909 48.706C139.34 48.398 138.901 47.9547 138.593 47.376C138.285 46.7973 138.131 46.1207 138.131 45.346C138.131 44.59 138.276 43.9227 138.565 43.344C138.864 42.7653 139.279 42.3173 139.811 42C140.343 41.6827 140.959 41.524 141.659 41.524C142.341 41.524 142.933 41.678 143.437 41.986C143.951 42.294 144.343 42.7373 144.613 43.316C144.884 43.8947 145.019 44.5713 145.019 45.346V45.906ZM141.659 43.008C141.221 43.008 140.852 43.1527 140.553 43.442C140.264 43.7313 140.068 44.1327 139.965 44.646H143.115C143.041 44.114 142.882 43.708 142.639 43.428C142.397 43.148 142.07 43.008 141.659 43.008Z" fill="#212427"/>
<rect x="169" y="32" width="95" height="27" rx="13.5" fill="white"/>
<path d="M187.159 49.168C186.216 49.168 185.413 48.958 184.751 48.538C184.097 48.118 183.603 47.53 183.267 46.774C182.94 46.018 182.777 45.136 182.777 44.128C182.777 43.12 182.94 42.238 183.267 41.482C183.603 40.726 184.097 40.138 184.751 39.718C185.413 39.298 186.216 39.088 187.159 39.088C187.672 39.088 188.167 39.1533 188.643 39.284C189.119 39.4053 189.553 39.5873 189.945 39.83V41.23H189.889C189.581 40.9313 189.193 40.6933 188.727 40.516C188.26 40.3293 187.751 40.236 187.201 40.236C186.137 40.236 185.353 40.5813 184.849 41.272C184.354 41.9627 184.107 42.9147 184.107 44.128C184.107 45.3507 184.354 46.3073 184.849 46.998C185.353 47.6887 186.132 48.034 187.187 48.034C187.719 48.034 188.218 47.9453 188.685 47.768C189.161 47.5907 189.562 47.3433 189.889 47.026H189.945V48.426C189.553 48.6687 189.119 48.8553 188.643 48.986C188.167 49.1073 187.672 49.168 187.159 49.168ZM197.249 49L197.053 47.95C196.689 48.3513 196.292 48.6547 195.863 48.86C195.443 49.0653 194.967 49.168 194.435 49.168C193.772 49.168 193.236 48.9813 192.825 48.608C192.414 48.2253 192.209 47.7213 192.209 47.096C192.209 46.284 192.536 45.6867 193.189 45.304C193.842 44.9213 194.682 44.73 195.709 44.73C196.082 44.73 196.493 44.7533 196.941 44.8V44.296C196.941 43.792 196.801 43.3907 196.521 43.092C196.25 42.784 195.896 42.63 195.457 42.63C194.934 42.63 194.458 42.7 194.029 42.84C193.609 42.98 193.175 43.1993 192.727 43.498V42.308C193.166 42.0187 193.614 41.818 194.071 41.706C194.528 41.5847 195.051 41.524 195.639 41.524C196.386 41.524 196.992 41.762 197.459 42.238C197.935 42.714 198.173 43.344 198.173 44.128V47.376L198.481 49H197.249ZM194.687 48.132C195.135 48.132 195.536 48.0387 195.891 47.852C196.246 47.6653 196.596 47.3947 196.941 47.04V45.668H195.653C194.244 45.668 193.539 46.1207 193.539 47.026C193.539 47.362 193.646 47.6327 193.861 47.838C194.076 48.034 194.351 48.132 194.687 48.132ZM202.64 49.168C202.192 49.168 201.749 49.1027 201.31 48.972C200.881 48.832 200.475 48.636 200.092 48.384V47.096C200.941 47.7493 201.781 48.076 202.612 48.076C203.097 48.076 203.489 47.978 203.788 47.782C204.087 47.5767 204.236 47.306 204.236 46.97C204.236 46.7367 204.161 46.5453 204.012 46.396C203.872 46.2467 203.695 46.13 203.48 46.046C203.265 45.962 202.957 45.8593 202.556 45.738C202.061 45.598 201.651 45.4627 201.324 45.332C201.007 45.192 200.736 44.9913 200.512 44.73C200.288 44.4593 200.176 44.1093 200.176 43.68C200.176 43.0267 200.423 42.504 200.918 42.112C201.413 41.72 202.061 41.524 202.864 41.524C203.667 41.524 204.395 41.734 205.048 42.154V43.4C204.684 43.12 204.329 42.9193 203.984 42.798C203.648 42.6767 203.293 42.616 202.92 42.616C202.453 42.616 202.085 42.7 201.814 42.868C201.543 43.036 201.408 43.2693 201.408 43.568C201.408 43.7827 201.478 43.96 201.618 44.1C201.767 44.24 201.949 44.352 202.164 44.436C202.379 44.52 202.687 44.6227 203.088 44.744C203.592 44.8933 204.003 45.038 204.32 45.178C204.637 45.3087 204.908 45.514 205.132 45.794C205.356 46.0647 205.468 46.4193 205.468 46.858C205.468 47.306 205.347 47.7073 205.104 48.062C204.861 48.4073 204.525 48.678 204.096 48.874C203.667 49.07 203.181 49.168 202.64 49.168ZM211.446 41.524C212.137 41.524 212.659 41.7387 213.014 42.168C213.369 42.588 213.546 43.176 213.546 43.932V49H212.314V44.1C212.314 43.6333 212.216 43.274 212.02 43.022C211.824 42.7607 211.525 42.63 211.124 42.63C210.667 42.63 210.279 42.7047 209.962 42.854C209.654 43.0033 209.309 43.246 208.926 43.582V49H207.694V38.444H208.926V42.602C209.337 42.2287 209.724 41.958 210.088 41.79C210.461 41.6127 210.914 41.524 211.446 41.524ZM221.721 40.432V43.68H225.249V44.8H221.721V49H220.489V39.256H226.173V40.432H221.721ZM228.337 38.444H229.569V49H228.337V38.444ZM235.257 49.168C234.193 49.168 233.363 48.8227 232.765 48.132C232.168 47.432 231.869 46.5033 231.869 45.346C231.869 44.1887 232.168 43.2647 232.765 42.574C233.363 41.874 234.193 41.524 235.257 41.524C236.321 41.524 237.152 41.874 237.749 42.574C238.347 43.2647 238.645 44.1887 238.645 45.346C238.645 46.5033 238.347 47.432 237.749 48.132C237.152 48.8227 236.321 49.168 235.257 49.168ZM235.257 48.104C235.939 48.104 236.452 47.852 236.797 47.348C237.143 46.844 237.315 46.1767 237.315 45.346C237.315 44.5153 237.143 43.848 236.797 43.344C236.452 42.84 235.939 42.588 235.257 42.588C234.576 42.588 234.063 42.84 233.717 43.344C233.381 43.848 233.213 44.5153 233.213 45.346C233.213 46.1767 233.381 46.844 233.717 47.348C234.063 47.852 234.576 48.104 235.257 48.104ZM251.212 41.692L248.916 49H247.32L245.598 43.386L243.904 49H242.308L240.012 41.692H241.272L243.176 47.81L244.996 41.692H246.256L248.104 47.81L250.008 41.692H251.212Z" fill="#4E4E4E"/>
<rect x="275" y="32" width="89" height="27" rx="13.5" fill="white"/>
<path d="M290.228 40.432V43.512H294.498V44.632H290.228V47.824H294.806V49H288.996V39.256H294.806V40.432H290.228ZM302.193 49L299.883 45.976L297.643 49H296.285L299.225 45.136L296.593 41.692H298.077L300.079 44.31L302.011 41.692H303.369L300.737 45.164L303.677 49H302.193ZM308.655 41.524C309.29 41.524 309.831 41.692 310.279 42.028C310.727 42.364 311.063 42.8213 311.287 43.4C311.52 43.9787 311.637 44.632 311.637 45.36C311.637 46.088 311.502 46.7413 311.231 47.32C310.97 47.8893 310.587 48.3373 310.083 48.664C309.588 48.9907 309 49.154 308.319 49.154C307.974 49.154 307.652 49.1167 307.353 49.042C307.054 48.9673 306.737 48.86 306.401 48.72V52.248H305.169V43.316L304.861 41.692H306.093L306.275 42.63C306.91 41.8927 307.703 41.524 308.655 41.524ZM308.193 48.062C308.865 48.062 309.383 47.81 309.747 47.306C310.12 46.802 310.307 46.1533 310.307 45.36C310.307 44.5667 310.162 43.918 309.873 43.414C309.593 42.91 309.15 42.658 308.543 42.658C308.114 42.658 307.726 42.7467 307.381 42.924C307.045 43.1013 306.718 43.3627 306.401 43.708V47.782C307.008 47.9687 307.605 48.062 308.193 48.062ZM320.018 45.752H314.838C314.913 46.4707 315.151 47.0447 315.552 47.474C315.963 47.894 316.518 48.104 317.218 48.104C317.638 48.104 318.044 48.02 318.436 47.852C318.837 47.6747 319.243 47.418 319.654 47.082H319.71V48.314C319.299 48.6127 318.893 48.832 318.492 48.972C318.091 49.1027 317.661 49.168 317.204 49.168C316.457 49.168 315.809 49.0047 315.258 48.678C314.707 48.3513 314.283 47.8987 313.984 47.32C313.695 46.732 313.55 46.06 313.55 45.304C313.55 44.5853 313.681 43.9413 313.942 43.372C314.213 42.7933 314.595 42.3407 315.09 42.014C315.585 41.6873 316.163 41.524 316.826 41.524C317.498 41.524 318.072 41.692 318.548 42.028C319.033 42.3547 319.397 42.8073 319.64 43.386C319.892 43.9647 320.018 44.618 320.018 45.346V45.752ZM316.84 42.546C316.261 42.546 315.799 42.756 315.454 43.176C315.109 43.596 314.903 44.1373 314.838 44.8H318.744C318.679 44.1187 318.487 43.5727 318.17 43.162C317.862 42.7513 317.419 42.546 316.84 42.546ZM326.131 41.524C326.821 41.524 327.344 41.7387 327.699 42.168C328.053 42.588 328.231 43.176 328.231 43.932V49H326.999V44.1C326.999 43.6333 326.901 43.274 326.705 43.022C326.509 42.7607 326.21 42.63 325.809 42.63C325.351 42.63 324.964 42.7047 324.647 42.854C324.339 43.0033 323.993 43.246 323.611 43.582V49H322.379V43.316L322.071 41.692H323.303L323.499 42.714C323.937 42.294 324.343 41.9907 324.717 41.804C325.099 41.6173 325.571 41.524 326.131 41.524ZM333 49.168C332.552 49.168 332.108 49.1027 331.67 48.972C331.24 48.832 330.834 48.636 330.452 48.384V47.096C331.301 47.7493 332.141 48.076 332.972 48.076C333.457 48.076 333.849 47.978 334.148 47.782C334.446 47.5767 334.596 47.306 334.596 46.97C334.596 46.7367 334.521 46.5453 334.372 46.396C334.232 46.2467 334.054 46.13 333.84 46.046C333.625 45.962 333.317 45.8593 332.916 45.738C332.421 45.598 332.01 45.4627 331.684 45.332C331.366 45.192 331.096 44.9913 330.872 44.73C330.648 44.4593 330.536 44.1093 330.536 43.68C330.536 43.0267 330.783 42.504 331.278 42.112C331.772 41.72 332.421 41.524 333.224 41.524C334.026 41.524 334.754 41.734 335.408 42.154V43.4C335.044 43.12 334.689 42.9193 334.344 42.798C334.008 42.6767 333.653 42.616 333.28 42.616C332.813 42.616 332.444 42.7 332.174 42.868C331.903 43.036 331.768 43.2693 331.768 43.568C331.768 43.7827 331.838 43.96 331.978 44.1C332.127 44.24 332.309 44.352 332.524 44.436C332.738 44.52 333.046 44.6227 333.448 44.744C333.952 44.8933 334.362 45.038 334.68 45.178C334.997 45.3087 335.268 45.514 335.492 45.794C335.716 46.0647 335.828 46.4193 335.828 46.858C335.828 47.306 335.706 47.7073 335.464 48.062C335.221 48.4073 334.885 48.678 334.456 48.874C334.026 49.07 333.541 49.168 333 49.168ZM343.948 45.752H338.768C338.842 46.4707 339.08 47.0447 339.482 47.474C339.892 47.894 340.448 48.104 341.148 48.104C341.568 48.104 341.974 48.02 342.366 47.852C342.767 47.6747 343.173 47.418 343.584 47.082H343.64V48.314C343.229 48.6127 342.823 48.832 342.422 48.972C342.02 49.1027 341.591 49.168 341.134 49.168C340.387 49.168 339.738 49.0047 339.188 48.678C338.637 48.3513 338.212 47.8987 337.914 47.32C337.624 46.732 337.48 46.06 337.48 45.304C337.48 44.5853 337.61 43.9413 337.872 43.372C338.142 42.7933 338.525 42.3407 339.02 42.014C339.514 41.6873 340.093 41.524 340.756 41.524C341.428 41.524 342.002 41.692 342.478 42.028C342.963 42.3547 343.327 42.8073 343.57 43.386C343.822 43.9647 343.948 44.618 343.948 45.346V45.752ZM340.77 42.546C340.191 42.546 339.729 42.756 339.384 43.176C339.038 43.596 338.833 44.1373 338.768 44.8H342.674C342.608 44.1187 342.417 43.5727 342.1 43.162C341.792 42.7513 341.348 42.546 340.77 42.546ZM348.114 49.168C347.666 49.168 347.223 49.1027 346.784 48.972C346.355 48.832 345.949 48.636 345.566 48.384V47.096C346.415 47.7493 347.255 48.076 348.086 48.076C348.571 48.076 348.963 47.978 349.262 47.782C349.561 47.5767 349.71 47.306 349.71 46.97C349.71 46.7367 349.635 46.5453 349.486 46.396C349.346 46.2467 349.169 46.13 348.954 46.046C348.739 45.962 348.431 45.8593 348.03 45.738C347.535 45.598 347.125 45.4627 346.798 45.332C346.481 45.192 346.21 44.9913 345.986 44.73C345.762 44.4593 345.65 44.1093 345.65 43.68C345.65 43.0267 345.897 42.504 346.392 42.112C346.887 41.72 347.535 41.524 348.338 41.524C349.141 41.524 349.869 41.734 350.522 42.154V43.4C350.158 43.12 349.803 42.9193 349.458 42.798C349.122 42.6767 348.767 42.616 348.394 42.616C347.927 42.616 347.559 42.7 347.288 42.868C347.017 43.036 346.882 43.2693 346.882 43.568C346.882 43.7827 346.952 43.96 347.092 44.1C347.241 44.24 347.423 44.352 347.638 44.436C347.853 44.52 348.161 44.6227 348.562 44.744C349.066 44.8933 349.477 45.038 349.794 45.178C350.111 45.3087 350.382 45.514 350.606 45.794C350.83 46.0647 350.942 46.4193 350.942 46.858C350.942 47.306 350.821 47.7073 350.578 48.062C350.335 48.4073 349.999 48.678 349.57 48.874C349.141 49.07 348.655 49.168 348.114 49.168Z" fill="#4E4E4E"/>
<path d="M49.2508 96.296C49.2508 97.608 48.8268 98.696 47.9788 99.56C47.1468 100.424 46.0028 100.968 44.5468 101.192V103.784H42.5788V101.288C41.6668 101.24 40.7308 101.104 39.7708 100.88C38.8268 100.64 37.9388 100.328 37.1068 99.944V96.872C39.1548 97.944 40.9788 98.504 42.5788 98.552V93.584C41.4748 93.168 40.6028 92.8 39.9628 92.48C39.3228 92.144 38.7708 91.672 38.3068 91.064C37.8428 90.456 37.6108 89.68 37.6108 88.736C37.6108 87.456 38.0508 86.408 38.9308 85.592C39.8268 84.776 41.0428 84.272 42.5788 84.08V81.512H44.5468V84.032C46.0988 84.112 47.4908 84.464 48.7228 85.088V88.088C47.3148 87.272 45.9228 86.832 44.5468 86.768V91.28C45.5068 91.632 46.3068 92 46.9468 92.384C47.6028 92.752 48.1468 93.256 48.5788 93.896C49.0268 94.536 49.2508 95.336 49.2508 96.296ZM40.8508 88.544C40.8508 88.976 40.9948 89.344 41.2828 89.648C41.5868 89.952 42.0188 90.232 42.5788 90.488V86.888C42.0348 87 41.6108 87.2 41.3068 87.488C41.0028 87.76 40.8508 88.112 40.8508 88.544ZM44.5468 98.312C45.5068 97.976 45.9868 97.368 45.9868 96.488C45.9868 96.04 45.8588 95.656 45.6028 95.336C45.3628 95 45.0108 94.704 44.5468 94.448V98.312ZM63.5728 98.216V101H51.9088V98.216H56.5888V87.992L53.5168 89.336H53.4208L52.7488 87.296V87.2L57.5248 84.296H59.7568V98.216H63.5728ZM72.6476 101.288C71.3996 101.288 70.2876 101.08 69.3116 100.664C68.3356 100.248 67.5756 99.664 67.0316 98.912C66.4876 98.16 66.2156 97.312 66.2156 96.368C66.2156 95.456 66.4636 94.64 66.9596 93.92C67.4716 93.2 68.1116 92.696 68.8796 92.408C68.1596 92.168 67.5836 91.688 67.1516 90.968C66.7356 90.248 66.5276 89.464 66.5276 88.616C66.5276 87.704 66.7836 86.896 67.2956 86.192C67.8236 85.488 68.5516 84.952 69.4796 84.584C70.4076 84.2 71.4556 84.008 72.6236 84.008C73.8076 84.008 74.8556 84.2 75.7676 84.584C76.6956 84.952 77.4156 85.488 77.9276 86.192C78.4556 86.88 78.7196 87.68 78.7196 88.592C78.7196 89.44 78.5036 90.224 78.0716 90.944C77.6396 91.664 77.0636 92.152 76.3436 92.408C77.1916 92.712 77.8476 93.232 78.3116 93.968C78.7916 94.688 79.0316 95.488 79.0316 96.368C79.0316 97.328 78.7596 98.184 78.2156 98.936C77.6716 99.672 76.9116 100.248 75.9356 100.664C74.9756 101.08 73.8796 101.288 72.6476 101.288ZM72.6236 91.04C73.5356 91.04 74.2396 90.856 74.7356 90.488C75.2476 90.104 75.5036 89.56 75.5036 88.856C75.5036 88.152 75.2556 87.608 74.7596 87.224C74.2636 86.84 73.5516 86.648 72.6236 86.648C71.6956 86.648 70.9836 86.84 70.4876 87.224C69.9916 87.608 69.7436 88.152 69.7436 88.856C69.7436 89.56 69.9916 90.104 70.4876 90.488C70.9836 90.856 71.6956 91.04 72.6236 91.04ZM72.6236 98.624C73.6316 98.624 74.4076 98.408 74.9516 97.976C75.4956 97.544 75.7676 96.944 75.7676 96.176C75.7676 95.392 75.4956 94.792 74.9516 94.376C74.4076 93.944 73.6316 93.728 72.6236 93.728C71.6316 93.728 70.8556 93.944 70.2956 94.376C69.7516 94.792 69.4796 95.392 69.4796 96.176C69.4796 96.96 69.7516 97.568 70.2956 98C70.8396 98.416 71.6156 98.624 72.6236 98.624ZM87.9864 90.272C89.1384 90.272 90.1544 90.504 91.0344 90.968C91.9144 91.416 92.5944 92.056 93.0744 92.888C93.5544 93.704 93.7944 94.64 93.7944 95.696C93.7944 96.8 93.5304 97.776 93.0024 98.624C92.4904 99.472 91.7704 100.128 90.8424 100.592C89.9144 101.056 88.8664 101.288 87.6984 101.288C85.6184 101.288 84.0184 100.568 82.8984 99.128C81.7784 97.688 81.2184 95.672 81.2184 93.08C81.2184 91.208 81.5064 89.592 82.0824 88.232C82.6584 86.872 83.4824 85.832 84.5544 85.112C85.6264 84.376 86.8984 84.008 88.3704 84.008C90.0504 84.008 91.6104 84.456 93.0504 85.352V88.256H92.9544C92.2824 87.744 91.5544 87.36 90.7704 87.104C89.9864 86.832 89.2584 86.696 88.5864 86.696C87.4824 86.696 86.5944 87.088 85.9224 87.872C85.2664 88.64 84.8504 89.76 84.6744 91.232C85.1704 90.896 85.6824 90.656 86.2104 90.512C86.7544 90.352 87.3464 90.272 87.9864 90.272ZM87.6504 98.6C88.4664 98.6 89.1384 98.336 89.6664 97.808C90.2104 97.28 90.4824 96.592 90.4824 95.744C90.4824 94.944 90.2344 94.288 89.7384 93.776C89.2584 93.248 88.5784 92.984 87.6984 92.984C86.7224 92.984 85.6824 93.304 84.5784 93.944C84.6584 95.464 84.9544 96.624 85.4664 97.424C85.9784 98.208 86.7064 98.6 87.6504 98.6ZM98.0692 101.288C97.4612 101.288 96.9492 101.088 96.5332 100.688C96.1172 100.288 95.9092 99.76 95.9092 99.104C95.9092 98.448 96.1172 97.92 96.5332 97.52C96.9492 97.12 97.4612 96.92 98.0692 96.92C98.6772 96.92 99.1892 97.12 99.6052 97.52C100.021 97.92 100.229 98.448 100.229 99.104C100.229 99.76 100.021 100.288 99.6052 100.688C99.1892 101.088 98.6772 101.288 98.0692 101.288ZM108.504 84.008C110.616 84.008 112.2 84.704 113.256 86.096C114.328 87.488 114.864 89.544 114.864 92.264C114.864 95.224 114.248 97.472 113.016 99.008C111.784 100.528 109.976 101.288 107.592 101.288C106.76 101.288 105.992 101.192 105.288 101C104.584 100.792 103.864 100.456 103.128 99.992V97.04H103.224C103.896 97.52 104.624 97.888 105.408 98.144C106.192 98.4 106.952 98.528 107.688 98.528C108.84 98.528 109.72 98.16 110.328 97.424C110.936 96.688 111.312 95.536 111.456 93.968C110.512 94.592 109.384 94.904 108.072 94.904C106.312 94.904 104.92 94.424 103.896 93.464C102.888 92.488 102.384 91.192 102.384 89.576C102.384 88.44 102.632 87.456 103.128 86.624C103.64 85.776 104.36 85.128 105.288 84.68C106.216 84.232 107.288 84.008 108.504 84.008ZM105.696 89.48C105.696 90.312 105.944 90.976 106.44 91.472C106.936 91.952 107.616 92.192 108.48 92.192C109.472 92.192 110.48 91.864 111.504 91.208C111.424 89.656 111.136 88.528 110.64 87.824C110.16 87.104 109.44 86.744 108.48 86.744C107.632 86.744 106.952 86.992 106.44 87.488C105.944 87.968 105.696 88.632 105.696 89.48ZM129.962 97.352H127.658V101H124.49V97.352H117.002V94.88L124.49 84.296H127.658V94.64H129.962V97.352ZM124.49 94.64V88.76L120.698 94.64H124.49Z" fill="#212427"/>
<path d="M152.5 99V91M152.5 91L149 94.2M152.5 91L156 94.2" stroke="#75DB92" stroke-width="1.25" stroke-linecap="round" stroke-linejoin="round"/>
<path d="M163.732 98.144C163.108 98.144 162.552 98.04 162.064 97.832C161.576 97.624 161.196 97.332 160.924 96.956C160.652 96.58 160.516 96.156 160.516 95.684C160.516 95.228 160.64 94.82 160.888 94.46C161.144 94.1 161.464 93.848 161.848 93.704C161.488 93.584 161.2 93.344 160.984 92.984C160.776 92.624 160.672 92.232 160.672 91.808C160.672 91.352 160.8 90.948 161.056 90.596C161.32 90.244 161.684 89.976 162.148 89.792C162.612 89.6 163.136 89.504 163.72 89.504C164.312 89.504 164.836 89.6 165.292 89.792C165.756 89.976 166.116 90.244 166.372 90.596C166.636 90.94 166.768 91.34 166.768 91.796C166.768 92.22 166.66 92.612 166.444 92.972C166.228 93.332 165.94 93.576 165.58 93.704C166.004 93.856 166.332 94.116 166.564 94.484C166.804 94.844 166.924 95.244 166.924 95.684C166.924 96.164 166.788 96.592 166.516 96.968C166.244 97.336 165.864 97.624 165.376 97.832C164.896 98.04 164.348 98.144 163.732 98.144ZM163.72 93.02C164.176 93.02 164.528 92.928 164.776 92.744C165.032 92.552 165.16 92.28 165.16 91.928C165.16 91.576 165.036 91.304 164.788 91.112C164.54 90.92 164.184 90.824 163.72 90.824C163.256 90.824 162.9 90.92 162.652 91.112C162.404 91.304 162.28 91.576 162.28 91.928C162.28 92.28 162.404 92.552 162.652 92.744C162.9 92.928 163.256 93.02 163.72 93.02ZM163.72 96.812C164.224 96.812 164.612 96.704 164.884 96.488C165.156 96.272 165.292 95.972 165.292 95.588C165.292 95.196 165.156 94.896 164.884 94.688C164.612 94.472 164.224 94.364 163.72 94.364C163.224 94.364 162.836 94.472 162.556 94.688C162.284 94.896 162.148 95.196 162.148 95.588C162.148 95.98 162.284 96.284 162.556 96.5C162.828 96.708 163.216 96.812 163.72 96.812ZM170.585 94.508C169.809 94.508 169.233 94.28 168.857 93.824C168.489 93.36 168.305 92.752 168.305 92C168.305 91.248 168.489 90.644 168.857 90.188C169.233 89.724 169.809 89.492 170.585 89.492C171.361 89.492 171.933 89.724 172.301 90.188C172.677 90.644 172.865 91.248 172.865 92C172.865 92.752 172.677 93.36 172.301 93.824C171.933 94.28 171.361 94.508 170.585 94.508ZM177.341 89.648L170.729 98H169.541L176.153 89.648H177.341ZM170.585 93.476C170.913 93.476 171.157 93.34 171.317 93.068C171.477 92.788 171.557 92.432 171.557 92C171.557 91.576 171.473 91.224 171.305 90.944C171.145 90.664 170.905 90.524 170.585 90.524C170.265 90.524 170.021 90.664 169.853 90.944C169.693 91.224 169.613 91.576 169.613 92C169.613 92.432 169.693 92.788 169.853 93.068C170.013 93.34 170.257 93.476 170.585 93.476ZM176.297 98.156C175.521 98.156 174.945 97.928 174.569 97.472C174.201 97.008 174.017 96.4 174.017 95.648C174.017 94.896 174.201 94.292 174.569 93.836C174.945 93.372 175.521 93.14 176.297 93.14C177.073 93.14 177.645 93.372 178.013 93.836C178.389 94.292 178.577 94.896 178.577 95.648C178.577 96.4 178.389 97.008 178.013 97.472C177.645 97.928 177.073 98.156 176.297 98.156ZM176.297 97.124C176.625 97.124 176.869 96.988 177.029 96.716C177.189 96.436 177.269 96.08 177.269 95.648C177.269 95.224 177.185 94.872 177.017 94.592C176.857 94.312 176.617 94.172 176.297 94.172C175.977 94.172 175.733 94.312 175.565 94.592C175.405 94.872 175.325 95.224 175.325 95.648C175.325 96.08 175.405 96.436 175.565 96.716C175.725 96.988 175.969 97.124 176.297 97.124Z" fill="#75DB92"/>
<path d="M186.457 91.1H184.081V89.648H190.417V91.1H188.041V98H186.457V91.1ZM196.245 98.144C195.389 98.144 194.653 97.968 194.037 97.616C193.421 97.264 192.953 96.764 192.633 96.116C192.313 95.468 192.153 94.704 192.153 93.824C192.153 92.944 192.313 92.18 192.633 91.532C192.953 90.884 193.421 90.384 194.037 90.032C194.653 89.68 195.389 89.504 196.245 89.504C197.101 89.504 197.837 89.68 198.453 90.032C199.069 90.384 199.537 90.884 199.857 91.532C200.177 92.18 200.337 92.944 200.337 93.824C200.337 94.704 200.177 95.468 199.857 96.116C199.537 96.764 199.069 97.264 198.453 97.616C197.837 97.968 197.101 98.144 196.245 98.144ZM196.245 96.68C196.997 96.68 197.589 96.436 198.021 95.948C198.453 95.452 198.669 94.744 198.669 93.824C198.669 92.904 198.453 92.2 198.021 91.712C197.589 91.216 196.997 90.968 196.245 90.968C195.493 90.968 194.901 91.216 194.469 91.712C194.037 92.2 193.821 92.904 193.821 93.824C193.821 94.744 194.037 95.452 194.469 95.948C194.901 96.436 195.493 96.68 196.245 96.68ZM206.203 89.648C207.059 89.648 207.795 89.82 208.411 90.164C209.027 90.5 209.495 90.984 209.815 91.616C210.135 92.24 210.295 92.976 210.295 93.824C210.295 94.672 210.135 95.412 209.815 96.044C209.495 96.668 209.027 97.152 208.411 97.496C207.795 97.832 207.059 98 206.203 98H203.119V89.648H206.203ZM206.203 96.596C206.963 96.596 207.555 96.36 207.979 95.888C208.411 95.416 208.627 94.728 208.627 93.824C208.627 92.92 208.411 92.232 207.979 91.76C207.555 91.288 206.963 91.052 206.203 91.052H204.703V96.596H206.203ZM217.558 96.104H213.994L213.298 98H211.714L214.882 89.648H216.73L219.898 98H218.254L217.558 96.104ZM217.066 94.76L215.782 91.208L214.486 94.76H217.066ZM227.922 89.648L224.886 95.12V98H223.302V95.12L220.266 89.648H221.958L224.106 93.704L226.29 89.648H227.922Z" fill="#4E4E4E"/>
<rect x="271" y="83" width="110" height="24" rx="12" fill="white"/>
<g clip-path="url(#clip0_557_7211)">
<path d="M277.5 89.6705C279.237 89.6705 279.442 89.6781 280.125 89.7086C280.76 89.7365 281.103 89.8432 281.331 89.932C281.634 90.0488 281.852 90.191 282.078 90.417C282.306 90.6455 282.446 90.8613 282.563 91.1635C282.652 91.392 282.758 91.7373 282.786 92.3695C282.817 93.0551 282.824 93.2607 282.824 94.9949C282.824 96.7316 282.817 96.9373 282.786 97.6203C282.758 98.2551 282.652 98.5979 282.563 98.8264C282.446 99.1285 282.304 99.3469 282.078 99.5729C281.849 99.8014 281.634 99.941 281.331 100.058C281.103 100.147 280.758 100.253 280.125 100.281C279.44 100.312 279.234 100.319 277.5 100.319C275.763 100.319 275.558 100.312 274.875 100.281C274.24 100.253 273.897 100.147 273.669 100.058C273.366 99.941 273.148 99.7988 272.922 99.5729C272.694 99.3443 272.554 99.1285 272.437 98.8264C272.348 98.5979 272.242 98.2525 272.214 97.6203C272.183 96.9348 272.176 96.7291 272.176 94.9949C272.176 93.2582 272.183 93.0525 272.214 92.3695C272.242 91.7348 272.348 91.392 272.437 91.1635C272.554 90.8613 272.696 90.643 272.922 90.417C273.151 90.1885 273.366 90.0488 273.669 89.932C273.897 89.8432 274.242 89.7365 274.875 89.7086C275.558 89.6781 275.763 89.6705 277.5 89.6705ZM277.5 88.5C275.735 88.5 275.514 88.5076 274.821 88.5381C274.131 88.5686 273.656 88.6803 273.245 88.8402C272.815 89.0078 272.452 89.2287 272.092 89.5918C271.729 89.9523 271.508 90.3154 271.34 90.742C271.18 91.1559 271.069 91.6281 271.038 92.3187C271.008 93.0145 271 93.2354 271 95C271 96.7646 271.008 96.9855 271.038 97.6787C271.069 98.3693 271.18 98.8441 271.34 99.2555C271.508 99.6846 271.729 100.048 272.092 100.408C272.452 100.769 272.815 100.992 273.242 101.157C273.656 101.317 274.128 101.429 274.819 101.459C275.512 101.49 275.733 101.497 277.497 101.497C279.262 101.497 279.483 101.49 280.176 101.459C280.867 101.429 281.342 101.317 281.753 101.157C282.179 100.992 282.543 100.769 282.903 100.408C283.264 100.048 283.487 99.6846 283.652 99.258C283.812 98.8441 283.924 98.3719 283.954 97.6813C283.985 96.9881 283.992 96.7672 283.992 95.0025C283.992 93.2379 283.985 93.017 283.954 92.3238C283.924 91.6332 283.812 91.1584 283.652 90.7471C283.492 90.3154 283.271 89.9523 282.908 89.5918C282.548 89.2313 282.185 89.0078 281.758 88.8428C281.344 88.6828 280.872 88.5711 280.181 88.5406C279.486 88.5076 279.265 88.5 277.5 88.5Z" fill="url(#paint0_linear_557_7211)"/>
<path d="M277.5 91.6611C275.657 91.6611 274.161 93.1566 274.161 95C274.161 96.8434 275.657 98.3389 277.5 98.3389C279.343 98.3389 280.839 96.8434 280.839 95C280.839 93.1566 279.343 91.6611 277.5 91.6611ZM277.5 97.1658C276.304 97.1658 275.334 96.1959 275.334 95C275.334 93.8041 276.304 92.8342 277.5 92.8342C278.696 92.8342 279.666 93.8041 279.666 95C279.666 96.1959 278.696 97.1658 277.5 97.1658Z" fill="url(#paint1_linear_557_7211)"/>
<path d="M281.75 91.5291C281.75 91.9607 281.4 92.3086 280.971 92.3086C280.539 92.3086 280.191 91.9582 280.191 91.5291C280.191 91.0975 280.542 90.7496 280.971 90.7496C281.4 90.7496 281.75 91.1 281.75 91.5291Z" fill="url(#paint2_linear_557_7211)"/>
</g>
<path d="M293.624 88.756H294.856V98.5H293.624V88.756ZM301.65 91.024C302.341 91.024 302.864 91.2387 303.218 91.668C303.573 92.088 303.75 92.676 303.75 93.432V98.5H302.518V93.6C302.518 93.1333 302.42 92.774 302.224 92.522C302.028 92.2607 301.73 92.13 301.328 92.13C300.871 92.13 300.484 92.2047 300.166 92.354C299.858 92.5033 299.513 92.746 299.13 93.082V98.5H297.898V92.816L297.59 91.192H298.822L299.018 92.214C299.457 91.794 299.863 91.4907 300.236 91.304C300.619 91.1173 301.09 91.024 301.65 91.024ZM308.519 98.668C308.071 98.668 307.628 98.6027 307.189 98.472C306.76 98.332 306.354 98.136 305.971 97.884V96.596C306.821 97.2493 307.661 97.576 308.491 97.576C308.977 97.576 309.369 97.478 309.667 97.282C309.966 97.0767 310.115 96.806 310.115 96.47C310.115 96.2367 310.041 96.0453 309.891 95.896C309.751 95.7467 309.574 95.63 309.359 95.546C309.145 95.462 308.837 95.3593 308.435 95.238C307.941 95.098 307.53 94.9627 307.203 94.832C306.886 94.692 306.615 94.4913 306.391 94.23C306.167 93.9593 306.055 93.6093 306.055 93.18C306.055 92.5267 306.303 92.004 306.797 91.612C307.292 91.22 307.941 91.024 308.743 91.024C309.546 91.024 310.274 91.234 310.927 91.654V92.9C310.563 92.62 310.209 92.4193 309.863 92.298C309.527 92.1767 309.173 92.116 308.799 92.116C308.333 92.116 307.964 92.2 307.693 92.368C307.423 92.536 307.287 92.7693 307.287 93.068C307.287 93.2827 307.357 93.46 307.497 93.6C307.647 93.74 307.829 93.852 308.043 93.936C308.258 94.02 308.566 94.1227 308.967 94.244C309.471 94.3933 309.882 94.538 310.199 94.678C310.517 94.8087 310.787 95.014 311.011 95.294C311.235 95.5647 311.347 95.9193 311.347 96.358C311.347 96.806 311.226 97.2073 310.983 97.562C310.741 97.9073 310.405 98.178 309.975 98.374C309.546 98.57 309.061 98.668 308.519 98.668ZM315.001 91.192H317.017V92.256H315.001V96.442C315.001 96.7873 315.076 97.0673 315.225 97.282C315.384 97.4873 315.613 97.59 315.911 97.59C316.117 97.59 316.299 97.5713 316.457 97.534C316.625 97.4873 316.812 97.4173 317.017 97.324V98.416C316.803 98.5187 316.597 98.584 316.401 98.612C316.205 98.6493 315.967 98.668 315.687 98.668C315.09 98.668 314.619 98.4767 314.273 98.094C313.937 97.7113 313.769 97.2027 313.769 96.568V92.256H312.369V91.192H313.769V89.232L315.001 88.588V91.192ZM323.435 98.5L323.239 97.45C322.875 97.8513 322.478 98.1547 322.049 98.36C321.629 98.5653 321.153 98.668 320.621 98.668C319.958 98.668 319.422 98.4813 319.011 98.108C318.6 97.7253 318.395 97.2213 318.395 96.596C318.395 95.784 318.722 95.1867 319.375 94.804C320.028 94.4213 320.868 94.23 321.895 94.23C322.268 94.23 322.679 94.2533 323.127 94.3V93.796C323.127 93.292 322.987 92.8907 322.707 92.592C322.436 92.284 322.082 92.13 321.643 92.13C321.12 92.13 320.644 92.2 320.215 92.34C319.795 92.48 319.361 92.6993 318.913 92.998V91.808C319.352 91.5187 319.8 91.318 320.257 91.206C320.714 91.0847 321.237 91.024 321.825 91.024C322.572 91.024 323.178 91.262 323.645 91.738C324.121 92.214 324.359 92.844 324.359 93.628V96.876L324.667 98.5H323.435ZM320.873 97.632C321.321 97.632 321.722 97.5387 322.077 97.352C322.432 97.1653 322.782 96.8947 323.127 96.54V95.168H321.839C320.43 95.168 319.725 95.6207 319.725 96.526C319.725 96.862 319.832 97.1327 320.047 97.338C320.262 97.534 320.537 97.632 320.873 97.632ZM333.166 91.178L332.858 92.802V98.024C332.858 99.256 332.573 100.213 332.004 100.894C331.435 101.575 330.59 101.916 329.47 101.916C328.845 101.916 328.331 101.855 327.93 101.734C327.529 101.613 327.113 101.37 326.684 101.006V99.76C327.141 100.143 327.571 100.404 327.972 100.544C328.373 100.693 328.873 100.768 329.47 100.768C330.189 100.768 330.725 100.539 331.08 100.082C331.444 99.634 331.626 99.004 331.626 98.192V97.828C331.318 98.0333 331.005 98.1827 330.688 98.276C330.38 98.36 330.011 98.402 329.582 98.402C328.527 98.402 327.729 98.0847 327.188 97.45C326.656 96.8153 326.39 95.924 326.39 94.776C326.39 93.5907 326.67 92.6713 327.23 92.018C327.79 91.3553 328.621 91.024 329.722 91.024C330.123 91.024 330.469 91.066 330.758 91.15C331.057 91.2247 331.416 91.3553 331.836 91.542L331.934 91.178H333.166ZM329.596 97.268C330.007 97.268 330.366 97.2167 330.674 97.114C330.982 97.0113 331.299 96.848 331.626 96.624V92.396C331.327 92.2933 331.043 92.2233 330.772 92.186C330.511 92.1393 330.207 92.116 329.862 92.116C329.134 92.116 328.593 92.3493 328.238 92.816C327.893 93.2827 327.72 93.9313 327.72 94.762C327.72 96.4327 328.345 97.268 329.596 97.268ZM339.076 91.024V92.382H338.866C338.427 92.382 338.03 92.4613 337.676 92.62C337.33 92.7787 337.041 93.0073 336.808 93.306V98.5H335.576V92.816L335.268 91.192H336.5L336.752 92.494C337.134 91.934 337.456 91.5513 337.718 91.346C337.988 91.1313 338.296 91.024 338.642 91.024H339.076ZM345.697 98.5L345.501 97.45C345.137 97.8513 344.74 98.1547 344.311 98.36C343.891 98.5653 343.415 98.668 342.883 98.668C342.22 98.668 341.683 98.4813 341.273 98.108C340.862 97.7253 340.657 97.2213 340.657 96.596C340.657 95.784 340.983 95.1867 341.637 94.804C342.29 94.4213 343.13 94.23 344.157 94.23C344.53 94.23 344.941 94.2533 345.389 94.3V93.796C345.389 93.292 345.249 92.8907 344.969 92.592C344.698 92.284 344.343 92.13 343.905 92.13C343.382 92.13 342.906 92.2 342.477 92.34C342.057 92.48 341.623 92.6993 341.175 92.998V91.808C341.613 91.5187 342.061 91.318 342.519 91.206C342.976 91.0847 343.499 91.024 344.087 91.024C344.833 91.024 345.44 91.262 345.907 91.738C346.383 92.214 346.621 92.844 346.621 93.628V96.876L346.929 98.5H345.697ZM343.135 97.632C343.583 97.632 343.984 97.5387 344.339 97.352C344.693 97.1653 345.043 96.8947 345.389 96.54V95.168H344.101C342.691 95.168 341.987 95.6207 341.987 96.526C341.987 96.862 342.094 97.1327 342.309 97.338C342.523 97.534 342.799 97.632 343.135 97.632ZM357.234 91.024C357.924 91.024 358.447 91.2387 358.802 91.668C359.156 92.088 359.334 92.676 359.334 93.432V98.5H358.102V93.6C358.102 93.1333 358.004 92.774 357.808 92.522C357.612 92.2607 357.313 92.13 356.912 92.13C356.501 92.13 356.156 92.2047 355.876 92.354C355.596 92.5033 355.274 92.746 354.91 93.082C354.919 93.1567 354.924 93.2733 354.924 93.432V98.5H353.692V93.6C353.692 93.1333 353.594 92.774 353.398 92.522C353.202 92.2607 352.903 92.13 352.502 92.13C352.091 92.13 351.746 92.2047 351.466 92.354C351.186 92.494 350.868 92.732 350.514 93.068V98.5H349.282V92.816L348.974 91.192H350.206L350.402 92.2C350.822 91.78 351.2 91.4813 351.536 91.304C351.881 91.1173 352.31 91.024 352.824 91.024C353.309 91.024 353.71 91.1313 354.028 91.346C354.354 91.5607 354.592 91.8687 354.742 92.27C355.19 91.822 355.586 91.5047 355.932 91.318C356.277 91.122 356.711 91.024 357.234 91.024Z" fill="#A3A3A3"/>
<path d="M369 93L373 97L377 93" stroke="#A3A3A3" stroke-linecap="round" stroke-linejoin="round"/>
<path d="M36 238L115.258 198H195.992H210.761L229.468 187.5L251.62 198L307.248 162.5H324.478L337.77 156L355 151" stroke="#75DB92"/>
<path d="M109.937 283.25H107.957V282.04H113.237V283.25H111.257V289H109.937V283.25ZM118.094 289.12C117.38 289.12 116.767 288.973 116.254 288.68C115.74 288.387 115.35 287.97 115.084 287.43C114.817 286.89 114.684 286.253 114.684 285.52C114.684 284.787 114.817 284.15 115.084 283.61C115.35 283.07 115.74 282.653 116.254 282.36C116.767 282.067 117.38 281.92 118.094 281.92C118.807 281.92 119.42 282.067 119.934 282.36C120.447 282.653 120.837 283.07 121.104 283.61C121.37 284.15 121.504 284.787 121.504 285.52C121.504 286.253 121.37 286.89 121.104 287.43C120.837 287.97 120.447 288.387 119.934 288.68C119.42 288.973 118.807 289.12 118.094 289.12ZM118.094 287.9C118.72 287.9 119.214 287.697 119.574 287.29C119.934 286.877 120.114 286.287 120.114 285.52C120.114 284.753 119.934 284.167 119.574 283.76C119.214 283.347 118.72 283.14 118.094 283.14C117.467 283.14 116.974 283.347 116.614 283.76C116.254 284.167 116.074 284.753 116.074 285.52C116.074 286.287 116.254 286.877 116.614 287.29C116.974 287.697 117.467 287.9 118.094 287.9ZM126.392 282.04C127.105 282.04 127.719 282.183 128.232 282.47C128.745 282.75 129.135 283.153 129.402 283.68C129.669 284.2 129.802 284.813 129.802 285.52C129.802 286.227 129.669 286.843 129.402 287.37C129.135 287.89 128.745 288.293 128.232 288.58C127.719 288.86 127.105 289 126.392 289H123.822V282.04H126.392ZM126.392 287.83C127.025 287.83 127.519 287.633 127.872 287.24C128.232 286.847 128.412 286.273 128.412 285.52C128.412 284.767 128.232 284.193 127.872 283.8C127.519 283.407 127.025 283.21 126.392 283.21H125.142V287.83H126.392ZM135.854 287.42H132.884L132.304 289H130.984L133.624 282.04H135.164L137.804 289H136.434L135.854 287.42ZM135.444 286.3L134.374 283.34L133.294 286.3H135.444ZM144.491 282.04L141.961 286.6V289H140.641V286.6L138.111 282.04H139.521L141.311 285.42L143.131 282.04H144.491Z" fill="#FFB526"/>
<path d="M168.565 282.04L166.375 289H164.835L163.355 284L161.875 289H160.335L158.145 282.04H159.575L161.125 287.39L162.655 282.04H164.105L165.635 287.39L167.185 282.04H168.565ZM171.5 283.2V284.94H174.5V286.03H171.5V287.84H174.72V289H170.18V282.04H174.72V283.2H171.5ZM178.397 283.2V284.94H181.397V286.03H178.397V287.84H181.617V289H177.077V282.04H181.617V283.2H178.397ZM186.053 286.12L185.293 287V289H183.973V282.04H185.293V285.2L187.963 282.04H189.583L186.953 285.08L189.743 289H188.113L186.053 286.12Z" fill="#A3A3A3"/>
<path d="M211.972 289H210.652V283.71L208.812 289H207.432L205.552 283.72V289H204.232V282.04H206.302L208.142 287.2L209.932 282.04H211.972V289ZM217.707 289.12C216.994 289.12 216.38 288.973 215.867 288.68C215.354 288.387 214.964 287.97 214.697 287.43C214.43 286.89 214.297 286.253 214.297 285.52C214.297 284.787 214.43 284.15 214.697 283.61C214.964 283.07 215.354 282.653 215.867 282.36C216.38 282.067 216.994 281.92 217.707 281.92C218.42 281.92 219.034 282.067 219.547 282.36C220.06 282.653 220.45 283.07 220.717 283.61C220.984 284.15 221.117 284.787 221.117 285.52C221.117 286.253 220.984 286.89 220.717 287.43C220.45 287.97 220.06 288.387 219.547 288.68C219.034 288.973 218.42 289.12 217.707 289.12ZM217.707 287.9C218.334 287.9 218.827 287.697 219.187 287.29C219.547 286.877 219.727 286.287 219.727 285.52C219.727 284.753 219.547 284.167 219.187 283.76C218.827 283.347 218.334 283.14 217.707 283.14C217.08 283.14 216.587 283.347 216.227 283.76C215.867 284.167 215.687 284.753 215.687 285.52C215.687 286.287 215.867 286.877 216.227 287.29C216.587 287.697 217.08 287.9 217.707 287.9ZM229.375 282.04V289H228.055L224.755 284.4V289H223.435V282.04H224.755L228.055 286.63V282.04H229.375ZM233.443 283.25H231.463V282.04H236.743V283.25H234.763V289H233.443V283.25ZM244.77 282.04V289H243.45V285.94H240.15V289H238.83V282.04H240.15V284.77H243.45V282.04H244.77Z" fill="#A3A3A3"/>
<path d="M265.539 282.04L263.009 286.6V289H261.689V286.6L259.159 282.04H260.569L262.359 285.42L264.179 282.04H265.539ZM268.5 283.2V284.94H271.5V286.03H268.5V287.84H271.72V289H267.18V282.04H271.72V283.2H268.5ZM278.207 287.42H275.237L274.657 289H273.337L275.977 282.04H277.517L280.157 289H278.787L278.207 287.42ZM277.797 286.3L276.727 283.34L275.647 286.3H277.797ZM285.959 289L284.539 286.35H283.299V289H281.979V282.04H284.489C285.389 282.04 286.063 282.22 286.509 282.58C286.956 282.94 287.179 283.463 287.179 284.15C287.179 284.637 287.069 285.05 286.849 285.39C286.629 285.73 286.303 285.983 285.869 286.15L287.409 289H285.959ZM283.299 285.19H284.499C284.939 285.19 285.263 285.113 285.469 284.96C285.683 284.807 285.789 284.547 285.789 284.18C285.789 283.827 285.686 283.577 285.479 283.43C285.273 283.283 284.943 283.21 284.489 283.21H283.299V285.19Z" fill="#A3A3A3"/>
<path d="M304.689 284.63C305.135 284.63 305.532 284.727 305.879 284.92C306.225 285.113 306.495 285.38 306.689 285.72C306.882 286.06 306.979 286.44 306.979 286.86C306.979 287.313 306.865 287.71 306.639 288.05C306.412 288.39 306.092 288.653 305.679 288.84C305.265 289.02 304.785 289.11 304.239 289.11C303.819 289.11 303.405 289.057 302.999 288.95C302.592 288.837 302.232 288.677 301.919 288.47V287.19H301.959C302.259 287.423 302.619 287.613 303.039 287.76C303.459 287.907 303.849 287.98 304.209 287.98C304.635 287.98 304.979 287.877 305.239 287.67C305.499 287.457 305.629 287.18 305.629 286.84C305.629 286.52 305.515 286.26 305.289 286.06C305.069 285.86 304.779 285.76 304.419 285.76C303.939 285.76 303.482 285.937 303.049 286.29H303.009L302.139 286.02V285.97L302.589 282.04H306.649V283.19H303.689L303.499 284.89C303.879 284.717 304.275 284.63 304.689 284.63ZM314.54 282.04L312.01 286.6V289H310.69V286.6L308.16 282.04H309.57L311.36 285.42L313.18 282.04H314.54Z" fill="#A3A3A3"/>
<circle cx="199" cy="320" r="3" fill="#4E4E4E"/>
<circle cx="211" cy="320" r="3" fill="#E0E0E0"/>
<circle cx="223" cy="320" r="3" fill="#E0E0E0"/>
</g>
<defs>
<filter id="filter0_d_557_7211" x="0" y="0" width="422" height="371" filterUnits="userSpaceOnUse" color-interpolation-filters="sRGB">
<feFlood flood-opacity="0" result="BackgroundImageFix"/>
<feColorMatrix in="SourceAlpha" type="matrix" values="0 0 0 0 0 0 0 0 0 0 0 0 0 0 0 0 0 0 127 0" result="hardAlpha"/>
<feOffset dy="8"/>
<feGaussianBlur stdDeviation="10"/>
<feComposite in2="hardAlpha" operator="out"/>
<feColorMatrix type="matrix" values="0 0 0 0 0 0 0 0 0 0 0 0 0 0 0 0 0 0 0.15 0"/>
<feBlend mode="normal" in2="BackgroundImageFix" result="effect1_dropShadow_557_7211"/>
<feBlend mode="normal" in="SourceGraphic" in2="effect1_dropShadow_557_7211" result="shape"/>
</filter>
<linearGradient id="paint0_linear_557_7211" x1="277.496" y1="88.5" x2="277.496" y2="101.497" gradientUnits="userSpaceOnUse">
<stop stop-color="#AF00EC"/>
<stop offset="1" stop-color="#FF577F"/>
</linearGradient>
<linearGradient id="paint1_linear_557_7211" x1="277.5" y1="91.6611" x2="277.5" y2="98.3389" gradientUnits="userSpaceOnUse">
<stop stop-color="#AF00EC"/>
<stop offset="1" stop-color="#FF577F"/>
</linearGradient>
<linearGradient id="paint2_linear_557_7211" x1="280.971" y1="90.7496" x2="280.971" y2="92.3086" gradientUnits="userSpaceOnUse">
<stop stop-color="#AF00EC"/>
<stop offset="1" stop-color="#FF577F"/>
</linearGradient>
<clipPath id="clip0_557_7211">
<rect width="13" height="13" fill="white" transform="translate(271 88.5)"/>
</clipPath>
</defs>
</svg>
